<svg xmlns="http://www.w3.org/2000/svg" xmlns:xlink="http://www.w3.org/1999/xlink" width="500" zoomAndPan="magnify" viewBox="0 0 375 374.999991" height="500" preserveAspectRatio="xMidYMid meet" version="1.0"><defs><g/><clipPath id="e64f07f7f0"><path d="M 35 211 L 271 211 L 271 319 L 35 319 Z M 35 211 " clip-rule="nonzero"/></clipPath><clipPath id="89ed16f01f"><path d="M 46.058594 192.550781 L 280.601562 242.5625 L 260.386719 337.359375 L 25.84375 287.347656 Z M 46.058594 192.550781 " clip-rule="nonzero"/></clipPath><clipPath id="d1c3cdf38f"><path d="M 163.328125 217.554688 C 98.5625 203.746094 41.53125 213.773438 35.953125 239.949219 C 30.371094 266.128906 78.347656 298.542969 143.117188 312.351562 C 207.882812 326.164062 264.914062 316.136719 270.496094 289.960938 C 276.078125 263.78125 228.097656 231.367188 163.328125 217.554688 Z M 163.328125 217.554688 " clip-rule="nonzero"/></clipPath><clipPath id="7678fb3de8"><path d="M 206 38 L 322 38 L 322 170 L 206 170 Z M 206 38 " clip-rule="nonzero"/></clipPath><clipPath id="6b0cf3ff8c"><path d="M 265.488281 172.175781 L 204.414062 129.949219 L 275.644531 26.925781 L 336.71875 69.152344 Z M 265.488281 172.175781 " clip-rule="nonzero"/></clipPath><clipPath id="567bdbf2ce"><path d="M 265.488281 172.175781 L 204.414062 129.949219 L 275.644531 26.925781 L 336.71875 69.152344 Z M 265.488281 172.175781 " clip-rule="nonzero"/></clipPath></defs><g clip-path="url(#e64f07f7f0)"><g clip-path="url(#89ed16f01f)"><g clip-path="url(#d1c3cdf38f)"><path fill="#e8e8e8" d="M 46.058594 192.550781 L 280.601562 242.5625 L 260.386719 337.359375 L 25.84375 287.347656 Z M 46.058594 192.550781 " fill-opacity="1" fill-rule="nonzero"/></g></g></g><g clip-path="url(#7678fb3de8)"><g clip-path="url(#6b0cf3ff8c)"><g clip-path="url(#567bdbf2ce)"><path fill="#e8e8e8" d="M 211.457031 120.695312 C 210.382812 122.273438 209.351562 123.898438 208.394531 125.554688 C 206.988281 127.617188 205.792969 130.210938 208.414062 131.910156 C 215.949219 137.925781 224.101562 143.09375 231.980469 148.636719 C 241.402344 155.464844 250.964844 162.113281 260.855469 168.261719 C 262.996094 169.816406 264.800781 170.261719 266.734375 168.0625 C 268.765625 166.152344 270.445312 163.910156 271.933594 161.570312 C 273.308594 158.746094 277.539062 154.730469 274.367188 151.828125 C 276.910156 141.820312 279.375 131.757812 280.824219 121.519531 C 292.007812 105.644531 302.675781 89.398438 313.484375 73.28125 C 315.648438 70.363281 317.445312 67.171875 319.574219 64.230469 C 320.179688 63.378906 320.886719 62.574219 321.085938 61.5 C 321.425781 58.871094 318.59375 57.585938 316.859375 56.199219 C 313.675781 53.847656 310.519531 51.460938 307.304688 49.128906 C 301.957031 45.261719 296.414062 41.613281 290.394531 38.875 C 287.515625 37.222656 286.546875 38.515625 285.109375 41 C 272.382812 60.109375 259.695312 79.246094 247.171875 98.496094 C 238.328125 104.015625 229.210938 109.140625 220.847656 115.367188 C 216.191406 112.765625 213.707031 117.386719 211.457031 120.695312 Z M 215.285156 135.371094 C 218.804688 130.304688 222.449219 125.304688 225.730469 120.070312 C 228.195312 121.699219 230.660156 123.328125 233.117188 124.972656 C 229.742188 130.230469 226.40625 135.539062 223.058594 140.820312 C 220.453125 139.039062 217.847656 137.234375 215.285156 135.371094 Z M 224.207031 141.613281 C 227.554688 136.316406 230.867188 131.011719 234.277344 125.753906 C 237.214844 127.730469 240.136719 129.695312 243.066406 131.683594 C 239.621094 136.933594 236.144531 142.179688 232.703125 147.429688 C 229.894531 145.433594 227.027344 143.542969 224.207031 141.613281 Z M 234.699219 148.867188 C 234.40625 148.644531 234.101562 148.4375 233.820312 148.222656 C 237.273438 142.957031 240.75 137.710938 244.199219 132.449219 C 246.476562 134.003906 248.738281 135.546875 251.011719 137.101562 C 247.75 142.574219 244.394531 147.996094 241.136719 153.46875 C 238.980469 151.957031 236.824219 150.449219 234.699219 148.867188 Z M 242.277344 154.277344 C 245.539062 148.804688 248.894531 143.382812 252.140625 137.902344 C 254.949219 139.84375 257.761719 141.785156 260.546875 143.730469 C 257.324219 149.207031 253.921875 154.5625 250.332031 159.808594 C 247.640625 157.964844 244.960938 156.132812 242.277344 154.277344 Z M 251.488281 160.570312 C 255.066406 155.335938 258.472656 149.984375 261.6875 144.519531 C 264.183594 146.265625 266.671875 148.023438 269.171875 149.789062 C 265.882812 155.089844 262.382812 160.261719 258.6875 165.28125 C 256.269531 163.746094 253.882812 162.167969 251.488281 160.570312 Z M 274.148438 154.6875 C 272.0625 159.324219 269.148438 163.839844 265.4375 167.367188 C 265 167.757812 264.449219 168.3125 263.804688 168.242188 C 262.367188 167.828125 261.171875 166.71875 259.859375 166.019531 C 263.546875 161.011719 267.03125 155.863281 270.304688 150.589844 C 271.609375 151.808594 274.386719 152.53125 274.148438 154.6875 Z M 248.621094 98.785156 C 258.035156 84.085938 267.917969 69.683594 277.429688 55.03125 C 278.046875 54.355469 280.027344 50.300781 280.683594 50.679688 C 291.5 57.410156 301.992188 64.738281 312.324219 72.199219 C 302.128906 88.382812 290.933594 104.433594 280.003906 120.296875 C 269.542969 113.082031 259.046875 105.996094 248.621094 98.785156 Z M 287.492188 39.882812 C 287.5625 39.78125 287.65625 39.675781 287.761719 39.597656 C 287.785156 39.59375 287.871094 39.523438 287.902344 39.507812 C 288.015625 39.476562 288.148438 39.472656 288.265625 39.496094 C 296.65625 42.832031 303.964844 48.386719 311.195312 53.703125 C 313.851562 55.894531 317 57.589844 319.394531 60.046875 C 319.785156 60.597656 319.84375 61.292969 319.496094 61.875 C 317.347656 64.933594 315.332031 68.089844 313.246094 71.191406 C 302.75 63.617188 292.136719 56.054688 281.0625 49.371094 C 283.195312 46.207031 285.425781 43.089844 287.492188 39.882812 Z M 231.753906 109.570312 C 236.996094 106.238281 242.359375 103.082031 247.644531 99.792969 C 258.199219 107.089844 268.851562 114.269531 279.398438 121.582031 C 278.011719 131.488281 275.605469 141.214844 273.160156 150.917969 C 256.378906 138.996094 239.410156 127.339844 222.160156 116.089844 C 225.269531 113.785156 228.484375 111.648438 231.753906 109.570312 Z M 214.214844 119.199219 C 217.4375 113.53125 220.507812 116.722656 224.585938 119.316406 C 221.300781 124.527344 217.6875 129.511719 214.175781 134.566406 C 212.695312 133.488281 211.234375 132.382812 209.796875 131.238281 C 208.769531 130.585938 207.71875 129.539062 208.503906 128.269531 C 210.121094 125.085938 212.121094 122.089844 214.214844 119.199219 Z M 264.6875 100.054688 C 266.875 101.738281 269.285156 103.121094 271.59375 104.625 C 272.78125 105.613281 274.566406 106.0625 275.484375 104.488281 C 278.449219 100.144531 281.714844 95.910156 284.25 91.320312 C 284.539062 89.335938 280.585938 87.125 279.222656 85.882812 C 277.671875 85.035156 275.410156 82.386719 273.871094 84.5 C 271.378906 87.511719 269.15625 90.726562 266.878906 93.882812 C 266.042969 95.066406 265.195312 96.238281 264.339844 97.421875 C 263.414062 98.351562 263.578125 99.363281 264.6875 100.054688 Z M 265.679688 97.917969 C 268.777344 93.679688 271.714844 89.296875 275.046875 85.238281 C 275.027344 85.265625 275.222656 85.0625 275.261719 85.03125 C 275.457031 84.777344 280.671875 88.492188 282.839844 90.792969 C 282.878906 90.84375 282.890625 90.90625 282.898438 90.949219 C 282.894531 91.039062 282.867188 91.132812 282.832031 91.183594 C 281.246094 93.640625 279.613281 96.082031 277.976562 98.503906 C 276.703125 100.320312 275.484375 102.1875 274.136719 103.949219 C 274.003906 104.085938 273.871094 104.199219 273.679688 104.175781 C 273.644531 104.171875 273.644531 104.171875 273.597656 104.160156 C 270.675781 102.511719 267.832031 100.675781 265.15625 98.621094 C 265.328125 98.402344 265.492188 98.164062 265.679688 97.917969 Z M 272.578125 93.40625 C 274.046875 94.3125 275.515625 95.214844 276.988281 96.121094 C 277.3125 96.328125 277.351562 96.785156 277.164062 97.082031 C 276.957031 97.410156 276.5 97.449219 276.199219 97.257812 C 274.730469 96.355469 273.257812 95.449219 271.789062 94.546875 C 271.054688 94.039062 271.84375 92.902344 272.578125 93.40625 Z M 272.578125 93.40625 " fill-opacity="1" fill-rule="nonzero"/></g></g></g><g fill="#0b0b0b" fill-opacity="1"><g transform="translate(71.453752, 240.564574)"><g><path d="M 8.023438 -7.15625 L 8.234375 -8.113281 L 3.050781 -9.257812 L 2.839844 -8.304688 L 4.847656 -7.859375 L 3.171875 -0.296875 L 1.164062 -0.742188 L 0.953125 0.210938 L 6.136719 1.359375 L 6.347656 0.40625 L 4.339844 -0.0390625 L 6.015625 -7.601562 Z M 8.023438 -7.15625 "/></g></g></g><g fill="#0b0b0b" fill-opacity="1"><g transform="translate(78.54627, 242.135062)"><g><path d="M 9.957031 -7.730469 L 8.039062 0.941406 C 7.949219 0.476562 7.824219 -0.046875 7.710938 -0.414062 L 5.058594 -8.816406 L 3.066406 -9.257812 L 0.96875 0.214844 L 2.152344 0.476562 L 4.070312 -8.195312 C 4.144531 -7.792969 4.253906 -7.335938 4.394531 -6.824219 L 7.050781 1.5625 L 9.03125 2 L 11.125 -7.472656 Z M 9.957031 -7.730469 "/></g></g></g><g fill="#0b0b0b" fill-opacity="1"><g transform="translate(88.558398, 244.352034)"><g/></g></g><g fill="#0b0b0b" fill-opacity="1"><g transform="translate(91.762847, 245.061591)"><g><path d="M 8.261719 1.828125 L 9.457031 2.09375 L 7.964844 -8.171875 L 6.214844 -8.558594 L 0.527344 0.117188 L 1.710938 0.378906 L 3.171875 -1.835938 L 7.871094 -0.796875 Z M 3.738281 -2.714844 L 6.894531 -7.511719 L 7.726562 -1.832031 Z M 3.738281 -2.714844 "/></g></g></g><g fill="#0b0b0b" fill-opacity="1"><g transform="translate(101.718004, 247.265949)"><g/></g></g><g fill="#0b0b0b" fill-opacity="1"><g transform="translate(104.922453, 247.975506)"><g><path d="M 14.445312 -6.738281 L 10.519531 1.539062 L 10.144531 -7.6875 L 8.292969 -8.097656 L 4.054688 0.105469 L 3.992188 -9.050781 L 2.796875 -9.316406 L 2.863281 0.632812 L 4.855469 1.074219 L 9.019531 -6.996094 L 9.371094 2.074219 L 11.363281 2.515625 L 15.628906 -6.476562 Z M 14.445312 -6.738281 "/></g></g></g><g fill="#0b0b0b" fill-opacity="1"><g transform="translate(119.150212, 251.12594)"><g><path d="M 5.445312 1.460938 C 8.734375 2.1875 10.644531 0.371094 11.277344 -2.476562 C 11.898438 -5.285156 10.941406 -7.78125 7.652344 -8.511719 C 4.363281 -9.238281 2.457031 -7.390625 1.832031 -4.570312 C 1.199219 -1.707031 2.152344 0.730469 5.445312 1.460938 Z M 3.074219 -4.292969 C 3.664062 -6.957031 5.011719 -8.0625 7.433594 -7.527344 C 9.855469 -6.992188 10.625 -5.414062 10.035156 -2.753906 C 9.445312 -0.0898438 8.082031 1.011719 5.660156 0.476562 C 3.242188 -0.0585938 2.484375 -1.632812 3.074219 -4.292969 Z M 3.074219 -4.292969 "/></g></g></g><g fill="#0b0b0b" fill-opacity="1"><g transform="translate(130.15928, 253.563664)"><g><path d="M 8.542969 -0.738281 C 8.855469 -2.132812 8.308594 -2.703125 7.46875 -3.15625 C 8.574219 -3.167969 9.554688 -3.875 9.835938 -5.144531 C 10.171875 -6.667969 9.433594 -7.847656 7.480469 -8.277344 L 3.066406 -9.257812 L 0.96875 0.214844 L 2.152344 0.476562 L 3.089844 -3.769531 L 5.753906 -3.179688 C 7.0625 -2.886719 7.667969 -2.171875 7.367188 -0.820312 L 7.175781 0.0507812 C 7.023438 0.734375 6.992188 1.21875 7.019531 1.554688 L 8.175781 1.808594 C 8.167969 1.433594 8.167969 0.957031 8.324219 0.257812 Z M 6.375 -3.964844 L 3.285156 -4.652344 L 4.035156 -8.039062 L 7.140625 -7.351562 C 8.378906 -7.078125 8.816406 -6.414062 8.574219 -5.316406 C 8.332031 -4.234375 7.699219 -3.671875 6.375 -3.964844 Z M 6.375 -3.964844 "/></g></g></g><g fill="#0b0b0b" fill-opacity="1"><g transform="translate(139.373854, 255.604035)"><g><path d="M 2.363281 -0.476562 L 4.246094 -8.996094 L 3.066406 -9.257812 L 0.96875 0.214844 L 7.105469 1.574219 L 7.316406 0.621094 Z M 2.363281 -0.476562 "/></g></g></g><g fill="#0b0b0b" fill-opacity="1"><g transform="translate(146.793934, 257.247054)"><g><path d="M 6.996094 -8.386719 L 3.066406 -9.257812 L 0.96875 0.214844 L 4.898438 1.085938 C 8.003906 1.773438 9.789062 -0.0898438 10.367188 -2.695312 C 10.9375 -5.273438 10.101562 -7.699219 6.996094 -8.386719 Z M 4.898438 0.0820312 L 2.363281 -0.476562 L 4.035156 -8.039062 L 6.570312 -7.480469 C 9.105469 -6.917969 9.660156 -5.375 9.128906 -2.96875 C 8.59375 -0.5625 7.417969 0.640625 4.898438 0.0820312 Z M 4.898438 0.0820312 "/></g></g></g><g fill="#0b0b0b" fill-opacity="1"><g transform="translate(156.820303, 259.46718)"><g/></g></g><g fill="#0b0b0b" fill-opacity="1"><g transform="translate(160.024752, 260.176737)"><g><path d="M 6.996094 -8.386719 L 3.066406 -9.257812 L 0.96875 0.214844 L 4.898438 1.085938 C 8.003906 1.773438 9.789062 -0.0898438 10.367188 -2.695312 C 10.9375 -5.273438 10.101562 -7.699219 6.996094 -8.386719 Z M 4.898438 0.0820312 L 2.363281 -0.476562 L 4.035156 -8.039062 L 6.570312 -7.480469 C 9.105469 -6.917969 9.660156 -5.375 9.128906 -2.96875 C 8.59375 -0.5625 7.417969 0.640625 4.898438 0.0820312 Z M 4.898438 0.0820312 "/></g></g></g><g fill="#0b0b0b" fill-opacity="1"><g transform="translate(170.051121, 262.396863)"><g><path d="M 2.363281 -0.476562 L 3.125 -3.925781 L 8.523438 -2.730469 L 8.730469 -3.667969 L 3.332031 -4.863281 L 4.035156 -8.039062 L 9.863281 -6.75 L 10.074219 -7.703125 L 3.066406 -9.257812 L 0.96875 0.214844 L 8.019531 1.777344 L 8.230469 0.820312 Z M 2.363281 -0.476562 "/></g></g></g><g fill="#0b0b0b" fill-opacity="1"><g transform="translate(178.966615, 264.371009)"><g><path d="M 10 -7.71875 L 5.71875 -1.003906 C 5.488281 -0.621094 5.25 -0.226562 5.042969 0.160156 C 5.023438 -0.277344 4.972656 -0.734375 4.910156 -1.183594 L 3.878906 -9.078125 L 2.636719 -9.351562 L 3.972656 0.878906 L 5.683594 1.257812 L 11.199219 -7.457031 Z M 10 -7.71875 "/></g></g></g><g fill="#0b0b0b" fill-opacity="1"><g transform="translate(188.622692, 266.509142)"><g><path d="M 5.445312 1.460938 C 8.734375 2.1875 10.644531 0.371094 11.277344 -2.476562 C 11.898438 -5.285156 10.941406 -7.78125 7.652344 -8.511719 C 4.363281 -9.238281 2.457031 -7.390625 1.832031 -4.570312 C 1.199219 -1.707031 2.152344 0.730469 5.445312 1.460938 Z M 3.074219 -4.292969 C 3.664062 -6.957031 5.011719 -8.0625 7.433594 -7.527344 C 9.855469 -6.992188 10.625 -5.414062 10.035156 -2.753906 C 9.445312 -0.0898438 8.082031 1.011719 5.660156 0.476562 C 3.242188 -0.0585938 2.484375 -1.632812 3.074219 -4.292969 Z M 3.074219 -4.292969 "/></g></g></g><g fill="#0b0b0b" fill-opacity="1"><g transform="translate(199.631761, 268.946866)"><g><path d="M 8.023438 -7.15625 L 8.234375 -8.113281 L 3.050781 -9.257812 L 2.839844 -8.304688 L 4.847656 -7.859375 L 3.171875 -0.296875 L 1.164062 -0.742188 L 0.953125 0.210938 L 6.136719 1.359375 L 6.347656 0.40625 L 4.339844 -0.0390625 L 6.015625 -7.601562 Z M 8.023438 -7.15625 "/></g></g></g><g fill="#0b0b0b" fill-opacity="1"><g transform="translate(206.724278, 270.517353)"><g><path d="M 6.996094 -8.386719 L 3.066406 -9.257812 L 0.96875 0.214844 L 4.898438 1.085938 C 8.003906 1.773438 9.789062 -0.0898438 10.367188 -2.695312 C 10.9375 -5.273438 10.101562 -7.699219 6.996094 -8.386719 Z M 4.898438 0.0820312 L 2.363281 -0.476562 L 4.035156 -8.039062 L 6.570312 -7.480469 C 9.105469 -6.917969 9.660156 -5.375 9.128906 -2.96875 C 8.59375 -0.5625 7.417969 0.640625 4.898438 0.0820312 Z M 4.898438 0.0820312 "/></g></g></g><g fill="#0b0b0b" fill-opacity="1"><g transform="translate(216.750647, 272.737479)"><g/></g></g><g fill="#0b0b0b" fill-opacity="1"><g transform="translate(219.955097, 273.447036)"><g><path d="M 5.445312 1.460938 C 8.734375 2.1875 10.644531 0.371094 11.277344 -2.476562 C 11.898438 -5.285156 10.941406 -7.78125 7.652344 -8.511719 C 4.363281 -9.238281 2.457031 -7.390625 1.832031 -4.570312 C 1.199219 -1.707031 2.152344 0.730469 5.445312 1.460938 Z M 3.074219 -4.292969 C 3.664062 -6.957031 5.011719 -8.0625 7.433594 -7.527344 C 9.855469 -6.992188 10.625 -5.414062 10.035156 -2.753906 C 9.445312 -0.0898438 8.082031 1.011719 5.660156 0.476562 C 3.242188 -0.0585938 2.484375 -1.632812 3.074219 -4.292969 Z M 3.074219 -4.292969 "/></g></g></g><g fill="#0b0b0b" fill-opacity="1"><g transform="translate(230.964165, 275.88476)"><g><path d="M 9.847656 -6.753906 L 10.058594 -7.707031 L 3.066406 -9.257812 L 0.96875 0.214844 L 2.152344 0.476562 L 3.109375 -3.851562 L 8.492188 -2.660156 L 8.699219 -3.601562 L 3.316406 -4.792969 L 4.035156 -8.039062 Z M 9.847656 -6.753906 "/></g></g></g><g fill="#0b0b0b" fill-opacity="1"><g transform="translate(57.875992, 252.498334)"><g><path d="M 1.460938 -3.082031 C 1.046875 -1.21875 1.746094 0.609375 4.824219 1.292969 C 7.457031 1.875 8.800781 1.082031 9.199219 -0.726562 C 9.539062 -2.25 8.804688 -3.191406 7.183594 -3.832031 L 4.898438 -4.710938 C 3.867188 -5.121094 3.640625 -5.78125 3.804688 -6.523438 C 4.039062 -7.578125 4.910156 -8.144531 6.589844 -7.773438 C 8.371094 -7.378906 8.976562 -6.332031 8.820312 -5.023438 L 9.960938 -4.769531 C 10.238281 -6.621094 9.289062 -8.148438 6.8125 -8.695312 C 4.363281 -9.238281 2.941406 -8.285156 2.601562 -6.757812 C 2.285156 -5.335938 2.863281 -4.355469 4.460938 -3.75 L 6.621094 -2.910156 C 7.773438 -2.445312 8.191406 -1.832031 7.96875 -0.835938 C 7.726562 0.261719 6.980469 0.796875 5.027344 0.367188 C 2.835938 -0.121094 2.316406 -1.355469 2.613281 -2.828125 Z M 1.460938 -3.082031 "/></g></g></g><g fill="#0b0b0b" fill-opacity="1"><g transform="translate(67.247231, 254.573396)"><g><path d="M 9.757812 -7.773438 L 8.851562 -3.671875 L 3.339844 -4.894531 L 4.246094 -8.996094 L 3.066406 -9.257812 L 0.96875 0.214844 L 2.152344 0.476562 L 3.128906 -3.9375 L 8.640625 -2.71875 L 7.664062 1.695312 L 8.828125 1.957031 L 10.925781 -7.515625 Z M 9.757812 -7.773438 "/></g></g></g><g fill="#0b0b0b" fill-opacity="1"><g transform="translate(77.059972, 256.746218)"><g><path d="M 8.261719 1.828125 L 9.457031 2.09375 L 7.964844 -8.171875 L 6.214844 -8.558594 L 0.527344 0.117188 L 1.710938 0.378906 L 3.171875 -1.835938 L 7.871094 -0.796875 Z M 3.738281 -2.714844 L 6.894531 -7.511719 L 7.726562 -1.832031 Z M 3.738281 -2.714844 "/></g></g></g><g fill="#0b0b0b" fill-opacity="1"><g transform="translate(87.015129, 258.950576)"><g><path d="M 6.996094 -8.386719 L 3.066406 -9.257812 L 0.96875 0.214844 L 4.898438 1.085938 C 8.003906 1.773438 9.789062 -0.0898438 10.367188 -2.695312 C 10.9375 -5.273438 10.101562 -7.699219 6.996094 -8.386719 Z M 4.898438 0.0820312 L 2.363281 -0.476562 L 4.035156 -8.039062 L 6.570312 -7.480469 C 9.105469 -6.917969 9.660156 -5.375 9.128906 -2.96875 C 8.59375 -0.5625 7.417969 0.640625 4.898438 0.0820312 Z M 4.898438 0.0820312 "/></g></g></g><g fill="#0b0b0b" fill-opacity="1"><g transform="translate(97.041498, 261.170702)"><g><path d="M 5.445312 1.460938 C 8.734375 2.1875 10.644531 0.371094 11.277344 -2.476562 C 11.898438 -5.285156 10.941406 -7.78125 7.652344 -8.511719 C 4.363281 -9.238281 2.457031 -7.390625 1.832031 -4.570312 C 1.199219 -1.707031 2.152344 0.730469 5.445312 1.460938 Z M 3.074219 -4.292969 C 3.664062 -6.957031 5.011719 -8.0625 7.433594 -7.527344 C 9.855469 -6.992188 10.625 -5.414062 10.035156 -2.753906 C 9.445312 -0.0898438 8.082031 1.011719 5.660156 0.476562 C 3.242188 -0.0585938 2.484375 -1.632812 3.074219 -4.292969 Z M 3.074219 -4.292969 "/></g></g></g><g fill="#0b0b0b" fill-opacity="1"><g transform="translate(108.050566, 263.608426)"><g><path d="M 14.445312 -6.738281 L 10.519531 1.539062 L 10.144531 -7.6875 L 8.292969 -8.097656 L 4.054688 0.105469 L 3.992188 -9.050781 L 2.796875 -9.316406 L 2.863281 0.632812 L 4.855469 1.074219 L 9.019531 -6.996094 L 9.371094 2.074219 L 11.363281 2.515625 L 15.628906 -6.476562 Z M 14.445312 -6.738281 "/></g></g></g><g fill="#0b0b0b" fill-opacity="1"><g transform="translate(122.278325, 266.75886)"><g><path d="M 1.460938 -3.082031 C 1.046875 -1.21875 1.746094 0.609375 4.824219 1.292969 C 7.457031 1.875 8.800781 1.082031 9.199219 -0.726562 C 9.539062 -2.25 8.804688 -3.191406 7.183594 -3.832031 L 4.898438 -4.710938 C 3.867188 -5.121094 3.640625 -5.78125 3.804688 -6.523438 C 4.039062 -7.578125 4.910156 -8.144531 6.589844 -7.773438 C 8.371094 -7.378906 8.976562 -6.332031 8.820312 -5.023438 L 9.960938 -4.769531 C 10.238281 -6.621094 9.289062 -8.148438 6.8125 -8.695312 C 4.363281 -9.238281 2.941406 -8.285156 2.601562 -6.757812 C 2.285156 -5.335938 2.863281 -4.355469 4.460938 -3.75 L 6.621094 -2.910156 C 7.773438 -2.445312 8.191406 -1.832031 7.96875 -0.835938 C 7.726562 0.261719 6.980469 0.796875 5.027344 0.367188 C 2.835938 -0.121094 2.316406 -1.355469 2.613281 -2.828125 Z M 1.460938 -3.082031 "/></g></g></g><g fill="#0b0b0b" fill-opacity="1"><g transform="translate(131.649563, 268.833921)"><g/></g></g><g fill="#0b0b0b" fill-opacity="1"><g transform="translate(134.854012, 269.543478)"><g><path d="M 9.472656 -7.835938 L 6.441406 -4.398438 C 6.136719 -4.035156 5.820312 -3.6875 5.519531 -3.335938 C 5.378906 -3.785156 5.253906 -4.230469 5.132812 -4.691406 L 3.847656 -9.082031 L 2.496094 -9.382812 L 4.695312 -2.441406 L 3.960938 0.875 L 5.140625 1.136719 L 5.875 -2.179688 L 10.800781 -7.542969 Z M 9.472656 -7.835938 "/></g></g></g><g fill="#0b0b0b" fill-opacity="1"><g transform="translate(143.954652, 271.558621)"><g><path d="M 5.445312 1.460938 C 8.734375 2.1875 10.644531 0.371094 11.277344 -2.476562 C 11.898438 -5.285156 10.941406 -7.78125 7.652344 -8.511719 C 4.363281 -9.238281 2.457031 -7.390625 1.832031 -4.570312 C 1.199219 -1.707031 2.152344 0.730469 5.445312 1.460938 Z M 3.074219 -4.292969 C 3.664062 -6.957031 5.011719 -8.0625 7.433594 -7.527344 C 9.855469 -6.992188 10.625 -5.414062 10.035156 -2.753906 C 9.445312 -0.0898438 8.082031 1.011719 5.660156 0.476562 C 3.242188 -0.0585938 2.484375 -1.632812 3.074219 -4.292969 Z M 3.074219 -4.292969 "/></g></g></g><g fill="#0b0b0b" fill-opacity="1"><g transform="translate(154.96372, 273.996345)"><g><path d="M 1.703125 -3.179688 C 1.191406 -0.855469 2.101562 0.703125 4.75 1.289062 C 7.382812 1.875 8.882812 0.832031 9.394531 -1.476562 L 10.742188 -7.558594 L 9.558594 -7.820312 L 8.246094 -1.878906 C 7.765625 0.285156 6.734375 0.699219 4.964844 0.308594 C 3.199219 -0.0820312 2.425781 -0.898438 2.902344 -3.0625 L 4.21875 -9 L 3.050781 -9.257812 Z M 1.703125 -3.179688 "/></g></g></g><g fill="#0b0b0b" fill-opacity="1"><g transform="translate(164.548586, 276.118709)"><g/></g></g><g fill="#0b0b0b" fill-opacity="1"><g transform="translate(167.753035, 276.828267)"><g><path d="M 13.417969 -6.964844 L 11.382812 -7.414062 L 6.402344 0.296875 L 5.128906 -8.800781 L 3.066406 -9.257812 L 0.96875 0.214844 L 2.152344 0.476562 L 4.050781 -8.113281 L 5.355469 1.1875 L 6.949219 1.539062 L 12.042969 -6.34375 L 10.140625 2.246094 L 11.324219 2.507812 Z M 13.417969 -6.964844 "/></g></g></g><g fill="#0b0b0b" fill-opacity="1"><g transform="translate(180.04389, 279.549815)"><g><path d="M 1.703125 -3.179688 C 1.191406 -0.855469 2.101562 0.703125 4.75 1.289062 C 7.382812 1.875 8.882812 0.832031 9.394531 -1.476562 L 10.742188 -7.558594 L 9.558594 -7.820312 L 8.246094 -1.878906 C 7.765625 0.285156 6.734375 0.699219 4.964844 0.308594 C 3.199219 -0.0820312 2.425781 -0.898438 2.902344 -3.0625 L 4.21875 -9 L 3.050781 -9.257812 Z M 1.703125 -3.179688 "/></g></g></g><g fill="#0b0b0b" fill-opacity="1"><g transform="translate(189.628756, 281.672179)"><g><path d="M 1.460938 -3.082031 C 1.046875 -1.21875 1.746094 0.609375 4.824219 1.292969 C 7.457031 1.875 8.800781 1.082031 9.199219 -0.726562 C 9.539062 -2.25 8.804688 -3.191406 7.183594 -3.832031 L 4.898438 -4.710938 C 3.867188 -5.121094 3.640625 -5.78125 3.804688 -6.523438 C 4.039062 -7.578125 4.910156 -8.144531 6.589844 -7.773438 C 8.371094 -7.378906 8.976562 -6.332031 8.820312 -5.023438 L 9.960938 -4.769531 C 10.238281 -6.621094 9.289062 -8.148438 6.8125 -8.695312 C 4.363281 -9.238281 2.941406 -8.285156 2.601562 -6.757812 C 2.285156 -5.335938 2.863281 -4.355469 4.460938 -3.75 L 6.621094 -2.910156 C 7.773438 -2.445312 8.191406 -1.832031 7.96875 -0.835938 C 7.726562 0.261719 6.980469 0.796875 5.027344 0.367188 C 2.835938 -0.121094 2.316406 -1.355469 2.613281 -2.828125 Z M 1.460938 -3.082031 "/></g></g></g><g fill="#0b0b0b" fill-opacity="1"><g transform="translate(199.000001, 283.747242)"><g><path d="M 10.542969 -7.601562 L 2.566406 -9.367188 L 2.355469 -8.414062 L 5.773438 -7.65625 L 3.886719 0.875 L 5.054688 1.132812 L 6.941406 -7.398438 L 10.332031 -6.648438 Z M 10.542969 -7.601562 "/></g></g></g><g fill="#0b0b0b" fill-opacity="1"><g transform="translate(207.929729, 285.72454)"><g/></g></g><g fill="#0b0b0b" fill-opacity="1"><g transform="translate(211.134178, 286.434097)"><g><path d="M 9.757812 -7.773438 L 8.851562 -3.671875 L 3.339844 -4.894531 L 4.246094 -8.996094 L 3.066406 -9.257812 L 0.96875 0.214844 L 2.152344 0.476562 L 3.128906 -3.9375 L 8.640625 -2.71875 L 7.664062 1.695312 L 8.828125 1.957031 L 10.925781 -7.515625 Z M 9.757812 -7.773438 "/></g></g></g><g fill="#0b0b0b" fill-opacity="1"><g transform="translate(220.946912, 288.606918)"><g><path d="M 8.023438 -7.15625 L 8.234375 -8.113281 L 3.050781 -9.257812 L 2.839844 -8.304688 L 4.847656 -7.859375 L 3.171875 -0.296875 L 1.164062 -0.742188 L 0.953125 0.210938 L 6.136719 1.359375 L 6.347656 0.40625 L 4.339844 -0.0390625 L 6.015625 -7.601562 Z M 8.023438 -7.15625 "/></g></g></g><g fill="#0b0b0b" fill-opacity="1"><g transform="translate(228.03943, 290.177405)"><g><path d="M 6.996094 -8.386719 L 3.066406 -9.257812 L 0.96875 0.214844 L 4.898438 1.085938 C 8.003906 1.773438 9.789062 -0.0898438 10.367188 -2.695312 C 10.9375 -5.273438 10.101562 -7.699219 6.996094 -8.386719 Z M 4.898438 0.0820312 L 2.363281 -0.476562 L 4.035156 -8.039062 L 6.570312 -7.480469 C 9.105469 -6.917969 9.660156 -5.375 9.128906 -2.96875 C 8.59375 -0.5625 7.417969 0.640625 4.898438 0.0820312 Z M 4.898438 0.0820312 "/></g></g></g><g fill="#0b0b0b" fill-opacity="1"><g transform="translate(238.065799, 292.397531)"><g><path d="M 2.363281 -0.476562 L 3.125 -3.925781 L 8.523438 -2.730469 L 8.730469 -3.667969 L 3.332031 -4.863281 L 4.035156 -8.039062 L 9.863281 -6.75 L 10.074219 -7.703125 L 3.066406 -9.257812 L 0.96875 0.214844 L 8.019531 1.777344 L 8.230469 0.820312 Z M 2.363281 -0.476562 "/></g></g></g><g fill="#0b0b0b" fill-opacity="1"><g transform="translate(92.726502, 275.155504)"><g><path d="M 8.023438 -7.15625 L 8.234375 -8.113281 L 3.050781 -9.257812 L 2.839844 -8.304688 L 4.847656 -7.859375 L 3.171875 -0.296875 L 1.164062 -0.742188 L 0.953125 0.210938 L 6.136719 1.359375 L 6.347656 0.40625 L 4.339844 -0.0390625 L 6.015625 -7.601562 Z M 8.023438 -7.15625 "/></g></g></g><g fill="#0b0b0b" fill-opacity="1"><g transform="translate(99.81902, 276.725991)"><g><path d="M 9.957031 -7.730469 L 8.039062 0.941406 C 7.949219 0.476562 7.824219 -0.046875 7.710938 -0.414062 L 5.058594 -8.816406 L 3.066406 -9.257812 L 0.96875 0.214844 L 2.152344 0.476562 L 4.070312 -8.195312 C 4.144531 -7.792969 4.253906 -7.335938 4.394531 -6.824219 L 7.050781 1.5625 L 9.03125 2 L 11.125 -7.472656 Z M 9.957031 -7.730469 "/></g></g></g><g fill="#0b0b0b" fill-opacity="1"><g transform="translate(109.831148, 278.942963)"><g/></g></g><g fill="#0b0b0b" fill-opacity="1"><g transform="translate(113.035597, 279.65252)"><g><path d="M 7.410156 -8.292969 L 3.066406 -9.257812 L 0.96875 0.214844 L 2.164062 0.480469 L 3.035156 -3.453125 L 6.125 -2.765625 C 8.21875 -2.304688 9.324219 -3.386719 9.660156 -4.898438 C 9.996094 -6.421875 9.445312 -7.84375 7.410156 -8.292969 Z M 6.09375 -3.773438 L 3.246094 -4.40625 L 4.050781 -8.039062 L 6.941406 -7.398438 C 8.308594 -7.09375 8.671875 -6.296875 8.421875 -5.171875 C 8.179688 -4.089844 7.503906 -3.460938 6.09375 -3.773438 Z M 6.09375 -3.773438 "/></g></g></g><g fill="#0b0b0b" fill-opacity="1"><g transform="translate(121.808668, 281.59513)"><g><path d="M 2.363281 -0.476562 L 4.246094 -8.996094 L 3.066406 -9.257812 L 0.96875 0.214844 L 7.105469 1.574219 L 7.316406 0.621094 Z M 2.363281 -0.476562 "/></g></g></g><g fill="#0b0b0b" fill-opacity="1"><g transform="translate(129.228748, 283.238149)"><g><path d="M 8.261719 1.828125 L 9.457031 2.09375 L 7.964844 -8.171875 L 6.214844 -8.558594 L 0.527344 0.117188 L 1.710938 0.378906 L 3.171875 -1.835938 L 7.871094 -0.796875 Z M 3.738281 -2.714844 L 6.894531 -7.511719 L 7.726562 -1.832031 Z M 3.738281 -2.714844 "/></g></g></g><g fill="#0b0b0b" fill-opacity="1"><g transform="translate(139.183905, 285.442507)"><g><path d="M 8.023438 -7.15625 L 8.234375 -8.113281 L 3.050781 -9.257812 L 2.839844 -8.304688 L 4.847656 -7.859375 L 3.171875 -0.296875 L 1.164062 -0.742188 L 0.953125 0.210938 L 6.136719 1.359375 L 6.347656 0.40625 L 4.339844 -0.0390625 L 6.015625 -7.601562 Z M 8.023438 -7.15625 "/></g></g></g><g fill="#0b0b0b" fill-opacity="1"><g transform="translate(146.276423, 287.012994)"><g><path d="M 9.957031 -7.730469 L 8.039062 0.941406 C 7.949219 0.476562 7.824219 -0.046875 7.710938 -0.414062 L 5.058594 -8.816406 L 3.066406 -9.257812 L 0.96875 0.214844 L 2.152344 0.476562 L 4.070312 -8.195312 C 4.144531 -7.792969 4.253906 -7.335938 4.394531 -6.824219 L 7.050781 1.5625 L 9.03125 2 L 11.125 -7.472656 Z M 9.957031 -7.730469 "/></g></g></g><g fill="#0b0b0b" fill-opacity="1"><g transform="translate(156.288551, 289.229966)"><g/></g></g><g fill="#0b0b0b" fill-opacity="1"><g transform="translate(159.493, 289.939523)"><g><path d="M 1.460938 -3.082031 C 1.046875 -1.21875 1.746094 0.609375 4.824219 1.292969 C 7.457031 1.875 8.800781 1.082031 9.199219 -0.726562 C 9.539062 -2.25 8.804688 -3.191406 7.183594 -3.832031 L 4.898438 -4.710938 C 3.867188 -5.121094 3.640625 -5.78125 3.804688 -6.523438 C 4.039062 -7.578125 4.910156 -8.144531 6.589844 -7.773438 C 8.371094 -7.378906 8.976562 -6.332031 8.820312 -5.023438 L 9.960938 -4.769531 C 10.238281 -6.621094 9.289062 -8.148438 6.8125 -8.695312 C 4.363281 -9.238281 2.941406 -8.285156 2.601562 -6.757812 C 2.285156 -5.335938 2.863281 -4.355469 4.460938 -3.75 L 6.621094 -2.910156 C 7.773438 -2.445312 8.191406 -1.832031 7.96875 -0.835938 C 7.726562 0.261719 6.980469 0.796875 5.027344 0.367188 C 2.835938 -0.121094 2.316406 -1.355469 2.613281 -2.828125 Z M 1.460938 -3.082031 "/></g></g></g><g fill="#0b0b0b" fill-opacity="1"><g transform="translate(168.864238, 292.014585)"><g><path d="M 8.023438 -7.15625 L 8.234375 -8.113281 L 3.050781 -9.257812 L 2.839844 -8.304688 L 4.847656 -7.859375 L 3.171875 -0.296875 L 1.164062 -0.742188 L 0.953125 0.210938 L 6.136719 1.359375 L 6.347656 0.40625 L 4.339844 -0.0390625 L 6.015625 -7.601562 Z M 8.023438 -7.15625 "/></g></g></g><g fill="#0b0b0b" fill-opacity="1"><g transform="translate(175.956756, 293.585072)"><g><path d="M 5.316406 1.429688 C 7.480469 1.910156 8.808594 0.964844 9.527344 -0.324219 L 9.019531 1.980469 L 10.085938 2.21875 L 11.117188 -2.4375 L 5.691406 -3.640625 L 5.496094 -2.757812 L 9.769531 -1.8125 C 9.105469 -0.105469 7.910156 0.976562 5.703125 0.484375 C 3.253906 -0.0546875 2.488281 -1.660156 3.074219 -4.292969 C 3.664062 -6.972656 5.070312 -8.050781 7.476562 -7.519531 C 9.570312 -7.054688 10.382812 -5.992188 10.21875 -4.117188 L 11.445312 -3.84375 C 11.695312 -6.269531 10.558594 -7.867188 7.738281 -8.492188 C 4.460938 -9.214844 2.46875 -7.433594 1.832031 -4.570312 C 1.195312 -1.691406 2.183594 0.738281 5.316406 1.429688 Z M 5.316406 1.429688 "/></g></g></g><g fill="#0b0b0b" fill-opacity="1"><g transform="translate(187.079759, 296.048024)"><g><path d="M 9.757812 -7.773438 L 8.851562 -3.671875 L 3.339844 -4.894531 L 4.246094 -8.996094 L 3.066406 -9.257812 L 0.96875 0.214844 L 2.152344 0.476562 L 3.128906 -3.9375 L 8.640625 -2.71875 L 7.664062 1.695312 L 8.828125 1.957031 L 10.925781 -7.515625 Z M 9.757812 -7.773438 "/></g></g></g><g fill="#0b0b0b" fill-opacity="1"><g transform="translate(196.8925, 298.220847)"><g><path d="M 10.542969 -7.601562 L 2.566406 -9.367188 L 2.355469 -8.414062 L 5.773438 -7.65625 L 3.886719 0.875 L 5.054688 1.132812 L 6.941406 -7.398438 L 10.332031 -6.648438 Z M 10.542969 -7.601562 "/></g></g></g><path stroke-linecap="butt" transform="matrix(0.642846, -0.386328, 0.386328, 0.642846, 45.144438, 226.533398)" fill="none" stroke-linejoin="miter" d="M 0.000869984 0.999804 L 247.03574 0.998304 " stroke="#e8e8e8" stroke-width="2" stroke-opacity="1" stroke-miterlimit="4"/><path stroke-linecap="butt" transform="matrix(0.0402429, 0.74892, -0.74892, 0.0402429, 264.9103, 172.146668)" fill="none" stroke-linejoin="miter" d="M 0.000696835 1.001672 L 157.263672 1.002474 " stroke="#e8e8e8" stroke-width="2" stroke-opacity="1" stroke-miterlimit="4"/></svg>