<svg xmlns="http://www.w3.org/2000/svg" xmlns:xlink="http://www.w3.org/1999/xlink" width="500" zoomAndPan="magnify" viewBox="0 0 375 374.999991" height="500" preserveAspectRatio="xMidYMid meet" version="1.0"><defs><g/><clipPath id="f2252305f4"><path d="M 46.210938 46.421875 L 344.710938 46.421875 L 344.710938 344.171875 L 46.210938 344.171875 Z M 46.210938 46.421875 " clip-rule="nonzero"/></clipPath><clipPath id="3e5de1883e"><path d="M 30.59375 30.65625 L 128.175781 30.65625 L 128.175781 128.699219 L 30.59375 128.699219 Z M 30.59375 30.65625 " clip-rule="nonzero"/></clipPath><clipPath id="53fd5f19ae"><path d="M 79.382812 30.65625 C 52.4375 30.65625 30.59375 52.601562 30.59375 79.675781 C 30.59375 106.75 52.4375 128.699219 79.382812 128.699219 C 106.328125 128.699219 128.175781 106.75 128.175781 79.675781 C 128.175781 52.601562 106.328125 30.65625 79.382812 30.65625 Z M 79.382812 30.65625 " clip-rule="nonzero"/></clipPath></defs><g clip-path="url(#f2252305f4)"><path fill="#0b0b0b" d="M 195.097656 46.421875 C 113.878906 46.421875 46.351562 113.308594 46.324219 193.792969 C 46.292969 277.820312 112.140625 344.328125 195.363281 344.335938 C 277.4375 344.339844 344.167969 277.65625 344.261719 195.53125 C 344.355469 113.484375 277.273438 46.421875 195.097656 46.421875 Z M 315.136719 179.648438 C 315.082031 179.386719 315.054688 179.117188 315 178.855469 C 314.585938 176.796875 312.773438 173.789062 314.007812 172.914062 C 315.804688 171.648438 318.25 173.980469 320.425781 174.722656 C 321.929688 175.230469 323.265625 176.226562 324.746094 176.832031 C 326.882812 177.707031 328.230469 178.90625 327.207031 181.246094 C 326.789062 191.601562 325.730469 201.707031 323.453125 211.652344 C 323.242188 212.558594 322.789062 213.445312 322.757812 214.355469 C 322.699219 216.015625 321.441406 216.511719 320.351562 216.484375 C 318.703125 216.441406 319.339844 214.839844 319.335938 213.949219 C 319.289062 202.347656 317.566406 190.957031 315.136719 179.648438 Z M 126 299.242188 C 126.167969 298.890625 126.335938 298.535156 126.5 298.183594 C 133.039062 299.097656 139.578125 300.015625 147.183594 301.082031 C 142.171875 302.683594 138.199219 304.574219 134.054688 305.105469 C 129.949219 305.632812 128.710938 301.230469 126 299.242188 Z M 131.566406 313.386719 C 133.917969 317.101562 136.476562 320.679688 139.492188 325.121094 C 133.265625 322.707031 128.328125 320.066406 123.382812 317.429688 C 121.46875 316.40625 121.695312 315.296875 122.9375 313.972656 C 123.488281 313.386719 124.035156 312.792969 124.644531 312.273438 C 128.632812 308.863281 128.757812 308.949219 131.566406 313.386719 Z M 127.074219 296.386719 C 125.371094 296.066406 124.605469 295.164062 124.0625 293.632812 C 119.710938 281.4375 117.03125 268.867188 115.621094 256.019531 C 115.164062 251.878906 115.050781 247.703125 114.625 243.558594 C 114.394531 241.308594 114.910156 240.15625 117.417969 239.796875 C 123.253906 238.957031 129.089844 238.003906 134.835938 236.699219 C 137.820312 236.019531 138.558594 237.476562 139.054688 239.71875 C 141.023438 248.578125 143.664062 257.25 146.605469 265.820312 C 149.949219 275.570312 153.757812 285.132812 158.4375 294.339844 C 160.714844 298.824219 160.652344 298.855469 155.789062 299.769531 C 155.128906 299.894531 154.46875 300.003906 153.957031 300.09375 C 144.871094 298.972656 135.921875 298.066406 127.074219 296.386719 Z M 71.09375 176.949219 C 71.363281 184.078125 71.636719 191.199219 72.964844 198.230469 C 74.058594 204.027344 75.222656 209.816406 76.304688 215.617188 C 76.464844 216.480469 77.464844 217.4375 76.574219 218.222656 C 75.78125 218.925781 74.871094 218.230469 74.011719 217.84375 C 71.335938 216.625 68.644531 215.433594 65.914062 214.347656 C 63.550781 213.40625 62.554688 211.8125 63.171875 209.300781 C 63.855469 198.773438 64.964844 188.285156 67.28125 177.957031 C 67.394531 177.441406 67.742188 176.976562 67.863281 176.460938 C 68.15625 175.246094 68.882812 174.457031 70.121094 174.644531 C 71.445312 174.84375 71.0625 176.105469 71.09375 176.949219 Z M 72.769531 164.621094 C 72.476562 156.722656 76.84375 149.644531 80.082031 142.210938 C 80.679688 140.835938 81.519531 140.628906 82.949219 141.328125 C 94.832031 147.136719 107.480469 150.546875 120.367188 153.222656 C 121.351562 153.429688 123.453125 152.855469 123.148438 155.171875 C 122.921875 156.914062 122.75 158.402344 120.328125 158.835938 C 108.644531 160.9375 96.949219 163.035156 85.613281 166.6875 C 82.566406 167.671875 79.382812 168.390625 76.519531 169.765625 C 72.882812 171.511719 72.4375 169.921875 72.761719 166.890625 C 72.820312 166.359375 72.769531 165.816406 72.769531 164.621094 Z M 264.25 92.867188 C 257.625 91.902344 251.207031 90.96875 244.789062 90.035156 C 244.800781 89.816406 244.8125 89.597656 244.824219 89.378906 C 248.363281 88.242188 251.894531 87.070312 255.449219 85.976562 C 258.339844 85.089844 261.972656 87.871094 264.25 92.867188 Z M 258.675781 77.21875 C 256.414062 73.660156 253.960938 70.222656 251.109375 66.019531 C 257.433594 68.25 262.5625 71.039062 267.644531 73.921875 C 268.882812 74.628906 268.765625 75.605469 267.84375 76.570312 C 267.382812 77.054688 266.964844 77.585938 266.484375 78.050781 C 262.261719 82.148438 261.746094 82.042969 258.675781 77.21875 Z M 263.0625 94.5 C 264.976562 94.824219 265.773438 95.675781 266.382812 97.363281 C 270.929688 109.914062 273.574219 122.878906 274.96875 136.117188 C 275.375 139.988281 275.484375 143.890625 275.886719 147.761719 C 276.089844 149.746094 275.390625 150.789062 273.464844 151.132812 C 267.128906 152.25 260.78125 153.316406 254.472656 154.554688 C 251.867188 155.066406 251.898438 153.023438 251.589844 151.707031 C 249.449219 142.617188 246.792969 133.683594 243.757812 124.867188 C 240.414062 115.140625 236.59375 105.605469 231.921875 96.425781 C 229.589844 91.847656 229.738281 91.65625 234.710938 91.335938 C 235.917969 91.261719 237.125 91.226562 238.269531 91.175781 C 246.628906 91.945312 254.855469 93.101562 263.0625 94.5 Z M 297.132812 144.542969 C 291.882812 146.167969 286.613281 147.714844 281.363281 149.308594 C 278.152344 150.285156 277.613281 149.035156 277.484375 146.4375 C 276.890625 134.464844 275.191406 122.652344 272.277344 111.027344 C 271.078125 106.253906 269.570312 101.558594 268.203125 96.828125 C 273.8125 100.925781 277.90625 106.210938 281.933594 111.542969 C 288.597656 120.363281 294.164062 129.855469 299.265625 139.648438 C 300.792969 142.582031 300.171875 143.601562 297.132812 144.542969 Z M 302.269531 146.21875 C 305.265625 153.332031 308.246094 160.445312 310.367188 168.699219 C 299.773438 165.429688 289.9375 162.609375 279.792969 161.0625 C 278.910156 160.929688 278.386719 160.488281 278.074219 159.632812 C 276.429688 155.136719 278.195312 151.691406 282.890625 150.542969 C 288.359375 149.207031 293.710938 147.527344 298.980469 145.554688 C 300.179688 145.105469 301.453125 144.277344 302.269531 146.21875 Z M 276.097656 172.285156 C 275.066406 191.105469 272.214844 209.613281 267.652344 227.882812 C 266.917969 230.828125 264.785156 231.382812 262.585938 231.238281 C 260.183594 231.078125 261.089844 228.714844 261.09375 227.332031 C 261.132812 205.429688 258.539062 183.832031 253.882812 162.457031 C 253.390625 160.207031 253.53125 158.625 256.742188 159.199219 C 262.519531 160.230469 268.359375 160.921875 274.175781 161.722656 C 275.972656 161.972656 276.171875 163.117188 276.121094 164.628906 C 276.039062 167.175781 276.097656 169.730469 276.097656 172.285156 Z M 263.390625 236.421875 C 262.5 236.132812 260.925781 236.65625 261.1875 234.910156 C 261.46875 233.019531 263.078125 232.917969 264.570312 232.851562 C 265.488281 232.808594 266.164062 233.097656 265.898438 234.304688 C 265.40625 235.351562 265.449219 237.09375 263.390625 236.421875 Z M 264.214844 240.023438 C 263.417969 242.246094 262.648438 244.480469 261.863281 246.710938 C 261.59375 246.695312 261.324219 246.679688 261.054688 246.660156 C 261.054688 244.265625 261.058594 241.871094 261.054688 239.476562 C 261.054688 238.226562 261.625 237.847656 262.832031 238.199219 C 263.792969 238.480469 264.699219 238.667969 264.214844 240.023438 Z M 207.636719 231.308594 C 204.78125 231.390625 205.21875 229.351562 205.324219 227.6875 C 206.011719 216.945312 206.160156 206.191406 206.894531 195.429688 C 206.894531 184.675781 206.957031 173.917969 206.847656 163.164062 C 206.824219 160.773438 207.460938 160.035156 209.964844 159.867188 C 220.148438 159.175781 230.386719 159.242188 240.511719 157.707031 C 241.035156 157.628906 241.582031 157.675781 242.121094 157.667969 C 250.441406 157.546875 251.003906 157.863281 252.707031 165.890625 C 255.398438 178.585938 256.957031 191.4375 258.175781 204.363281 C 258.921875 212.269531 258.363281 220.226562 259.589844 228.078125 C 260.070312 231.167969 258.570312 231.839844 255.835938 232.28125 C 239.691406 234.886719 223.714844 230.84375 207.636719 231.308594 Z M 228.933594 233.855469 C 221.851562 234.875 214.804688 235.785156 207.683594 235.4375 C 206.714844 235.386719 205.304688 235.824219 205.359375 234.074219 C 205.398438 232.691406 206.539062 232.804688 207.4375 232.84375 C 214.605469 233.160156 221.769531 233.511719 228.933594 233.855469 Z M 203.890625 227.976562 C 203.9375 230.464844 202.980469 231.257812 200.535156 231.132812 C 196.644531 230.925781 192.726562 230.84375 188.839844 231.058594 C 186.042969 231.210938 185.089844 230.410156 185.132812 227.503906 C 185.289062 216.738281 186.765625 173.6875 186.660156 162.917969 C 186.640625 160.597656 187.402344 159.875 189.671875 159.972656 C 193.433594 160.136719 197.222656 160.25 200.96875 159.976562 C 204.296875 159.734375 205.421875 160.734375 205.265625 164.191406 C 204.496094 181.40625 205.078125 198.652344 204.066406 215.867188 C 203.828125 219.894531 203.8125 223.941406 203.890625 227.976562 Z M 180.046875 231.351562 C 168.230469 231.734375 156.417969 232.378906 144.609375 233.0625 C 140.476562 233.304688 138.953125 231.582031 138.101562 227.527344 C 133.882812 207.394531 132.042969 187.011719 131.007812 166.527344 C 130.621094 158.882812 130.757812 159.371094 138.277344 158.324219 C 146 157.246094 153.550781 158.167969 161.171875 158.570312 C 167.546875 158.90625 175.261719 159.542969 181.871094 159.863281 C 182.917969 159.910156 183.738281 160.777344 183.738281 161.824219 L 183.738281 227.253906 C 183.777344 230.082031 183.210938 231.25 180.046875 231.351562 Z M 181.367188 235.425781 C 174.609375 235.140625 167.859375 234.800781 161.105469 234.476562 C 161.105469 234.238281 161.105469 234 161.105469 233.761719 C 167.882812 233.449219 174.660156 233.121094 181.4375 232.847656 C 182.292969 232.8125 183.464844 232.570312 183.570312 233.972656 C 183.703125 235.679688 182.363281 235.46875 181.367188 235.425781 Z M 114.125 233.871094 C 113.898438 232.535156 113.570312 230.742188 116.125 231.144531 C 120.589844 231.84375 125.070312 232.433594 129.546875 233.074219 C 131.503906 233.355469 133.464844 233.652344 135.421875 233.941406 C 135.464844 234.1875 135.507812 234.429688 135.550781 234.675781 C 128.933594 235.941406 122.359375 237.546875 115.683594 238.300781 C 113.085938 238.59375 114.390625 235.457031 114.125 233.871094 Z M 133.121094 231.746094 C 127.796875 230.53125 122.335938 229.832031 116.898438 229.234375 C 114.242188 228.9375 113.96875 227.675781 114.242188 225.511719 C 114.542969 223.113281 114.617188 220.683594 114.792969 218.269531 C 115.386719 199.550781 118.316406 181.175781 122.828125 163.015625 C 123.539062 160.144531 125.265625 159.816406 127.484375 159.953125 C 130.039062 160.113281 129.152344 162.34375 129.292969 163.671875 C 130.019531 170.617188 129.605469 177.605469 130.195312 184.597656 C 131.425781 199.285156 133.394531 213.832031 136.445312 228.230469 C 137.144531 231.539062 136.945312 232.617188 133.121094 231.746094 Z M 127.964844 152.9375 C 126.425781 152.753906 125.855469 151.976562 126.394531 150.476562 C 127.179688 148.285156 127.964844 146.09375 128.746094 143.898438 C 129.011719 143.96875 129.273438 144.042969 129.539062 144.113281 C 129.539062 146.363281 129.554688 148.613281 129.53125 150.867188 C 129.519531 151.917969 129.671875 153.136719 127.964844 152.9375 Z M 126.953125 154.421875 C 128.113281 154.542969 129.097656 154.75 129.050781 156.210938 C 128.992188 158.042969 127.652344 157.875 126.449219 157.875 C 125.542969 157.875 124.363281 158.097656 124.625 156.570312 C 124.835938 155.324219 125.316406 154.257812 126.953125 154.421875 Z M 182.824219 157.972656 C 175.601562 158.132812 168.429688 157.410156 161.257812 156.449219 C 168.5 156.394531 175.671875 155.539062 182.875 155.273438 C 183.855469 155.238281 185.238281 154.929688 185.207031 156.636719 C 185.171875 158.300781 183.820312 157.949219 182.824219 157.972656 Z M 201.738281 235.445312 C 199.191406 235.453125 196.644531 235.449219 194.097656 235.449219 C 194.097656 235.445312 194.097656 235.4375 194.097656 235.433594 C 191.6875 235.433594 189.273438 235.449219 186.859375 235.421875 C 186.023438 235.414062 185.234375 235.222656 185.238281 234.121094 C 185.242188 233.035156 186.023438 232.816406 186.863281 232.816406 C 191.824219 232.796875 196.78125 232.800781 201.742188 232.820312 C 202.578125 232.820312 203.398438 232.996094 203.363281 234.097656 C 203.328125 235.101562 202.636719 235.441406 201.738281 235.445312 Z M 203.152344 240.417969 C 202.429688 253.164062 201.820312 265.914062 201.089844 278.65625 C 200.789062 283.886719 200.179688 289.097656 199.902344 294.328125 C 199.804688 296.1875 199.308594 297.042969 197.351562 296.882812 C 195.878906 296.761719 194.394531 296.863281 192.914062 296.863281 C 186.121094 296.863281 186.039062 296.863281 185.953125 289.875 C 185.855469 282.078125 185.207031 249.542969 185.089844 241.074219 C 185.050781 238.589844 185.566406 237.398438 188.378906 237.5625 C 192.398438 237.796875 196.445312 237.734375 200.476562 237.605469 C 202.636719 237.535156 203.273438 238.34375 203.152344 240.417969 Z M 188.796875 155.269531 C 191.34375 155.257812 193.890625 155.265625 196.441406 155.265625 C 196.441406 155.261719 196.441406 155.253906 196.441406 155.25 C 198.585938 155.25 200.730469 155.214844 202.875 155.265625 C 203.871094 155.289062 205.199219 154.992188 205.15625 156.695312 C 205.125 157.972656 204.148438 158.113281 203.179688 158.183594 C 198.355469 158.539062 193.535156 158.445312 188.714844 158.089844 C 187.914062 158.03125 187.0625 157.929688 186.996094 156.839844 C 186.914062 155.550781 187.765625 155.273438 188.796875 155.269531 Z M 207.019531 156.464844 C 207.15625 155.054688 208.3125 155.238281 209.164062 155.359375 C 215.257812 156.230469 221.410156 155.984375 227.5 156.484375 C 221.425781 158.316406 215.257812 157.714844 209.15625 158.023438 C 208.097656 158.078125 206.863281 158.117188 207.019531 156.464844 Z M 276.097656 159.449219 C 275.878906 160.820312 274.605469 159.832031 273.765625 159.707031 C 267.0625 158.714844 260.359375 157.734375 252.671875 156.605469 C 260.296875 155.214844 266.957031 153.984375 273.628906 152.804688 C 274.472656 152.652344 275.796875 152.179688 275.988281 153.480469 C 276.273438 155.445312 276.410156 157.511719 276.097656 159.449219 Z M 249.832031 152.070312 C 250.398438 154.277344 249.601562 155.429688 247.269531 155.414062 C 245.65625 155.40625 244.042969 155.414062 242.425781 155.414062 C 231.429688 154.917969 220.472656 153.53125 209.4375 153.855469 C 207.515625 153.910156 206.851562 153.207031 206.882812 151.296875 C 207.183594 133.125 206.375 114.96875 205.964844 96.808594 C 205.910156 94.480469 206.742188 93.886719 208.957031 93.773438 C 214.449219 93.496094 219.941406 93.03125 225.402344 92.382812 C 227.234375 92.167969 228.070312 92.734375 228.828125 94.222656 C 238.21875 112.640625 244.722656 132.101562 249.832031 152.070312 Z M 207.949219 92.367188 C 206.773438 92.539062 205.785156 92.289062 205.726562 90.78125 C 205.664062 89.191406 206.742188 89.085938 207.878906 89.144531 C 213.585938 89.429688 219.292969 89.742188 225 90.042969 C 219.445312 92.101562 213.613281 91.535156 207.949219 92.367188 Z M 223.25 88.34375 C 217.75 88.113281 212.25 87.8125 206.753906 87.53125 C 205.769531 87.480469 205.378906 86.902344 205.316406 85.972656 C 204.761719 77.707031 204.199219 69.441406 203.578125 60.300781 C 212.636719 68.15625 218.898438 76.933594 224.3125 86.402344 C 225.171875 87.90625 224.691406 88.40625 223.25 88.34375 Z M 202.175781 92.414062 C 200.441406 92.414062 198.703125 92.414062 196.964844 92.414062 C 196.964844 92.421875 196.964844 92.433594 196.964844 92.441406 C 195.628906 92.441406 194.292969 92.484375 192.957031 92.425781 C 192.074219 92.390625 190.917969 92.546875 191.085938 91.0625 C 191.195312 90.132812 191.332031 89.0625 192.582031 89.046875 C 195.921875 89.015625 199.261719 89.042969 202.597656 89.101562 C 203.625 89.117188 203.820312 89.894531 203.871094 90.773438 C 203.945312 92.019531 203.273438 92.414062 202.175781 92.414062 Z M 194.042969 94.15625 C 194.4375 94.21875 194.851562 94.195312 195.253906 94.199219 C 204.320312 94.273438 204.402344 94.273438 204.582031 103.644531 C 204.71875 110.773438 205.210938 142 205.363281 150.476562 C 205.417969 153.34375 204.199219 153.824219 201.722656 153.675781 C 197.835938 153.441406 193.925781 153.371094 190.035156 153.484375 C 187.835938 153.546875 187.230469 152.742188 187.335938 150.675781 C 187.78125 141.808594 188 132.925781 188.542969 124.066406 C 189.09375 115.078125 190.03125 106.109375 190.582031 97.121094 C 190.738281 94.5625 191.714844 93.785156 194.042969 94.15625 Z M 186.539062 92.394531 C 179.367188 91.917969 172.203125 91.367188 165.039062 90.84375 C 165.082031 90.535156 165.128906 90.226562 165.171875 89.921875 C 172.25 89.609375 179.328125 89.261719 186.410156 89.027344 C 187.546875 88.988281 189.28125 88.328125 189.332031 90.609375 C 189.382812 92.804688 187.789062 92.476562 186.539062 92.394531 Z M 186.140625 93.910156 C 187.988281 93.90625 189.0625 94.15625 188.894531 96.605469 C 187.65625 114.578125 186.558594 132.5625 185.488281 150.546875 C 185.367188 152.550781 185.074219 153.84375 182.605469 153.796875 C 171.039062 153.585938 159.511719 154.441406 149.917969 155.390625 C 142.992188 155.617188 138.152344 154.238281 133.207031 153.820312 C 130.335938 153.578125 131.414062 151.574219 131.292969 149.933594 C 129.859375 131.027344 140.289062 116.242188 148.105469 100.46875 C 151.679688 93.253906 155.875 89.707031 164.496094 92.042969 C 171.449219 93.921875 178.863281 93.929688 186.140625 93.910156 Z M 133.804688 124.550781 C 132.890625 119.980469 134.421875 115.59375 135.152344 111.21875 C 136.050781 105.855469 137.769531 100.632812 138.945312 95.308594 C 139.425781 93.117188 140.359375 92.101562 142.691406 92.128906 C 145.476562 92.160156 148.203125 90.90625 151.691406 91.707031 C 144.820312 102.515625 139.109375 113.363281 133.804688 124.550781 Z M 140.652344 84.226562 C 140.066406 85.539062 138.910156 85.308594 137.894531 84.898438 C 135.445312 83.914062 132.796875 83.347656 130.464844 81.492188 C 135.175781 77.808594 139.949219 74.492188 146.265625 71.351562 C 144.085938 76.359375 142.398438 80.308594 140.652344 84.226562 Z M 130.492188 83.667969 C 132.417969 84.597656 134.453125 85.300781 136.410156 86.167969 C 137.53125 86.664062 139.390625 86.492188 139.136719 88.46875 C 138.902344 90.304688 137.570312 91.085938 135.808594 91.371094 C 130.523438 92.226562 125.253906 93.1875 119.960938 94.007812 C 118.550781 94.226562 117.253906 95.34375 115.019531 94.273438 C 119.128906 90.703125 122.933594 87.378906 126.769531 84.085938 C 127.882812 83.125 129.089844 82.988281 130.492188 83.667969 Z M 136.304688 93.046875 C 136.65625 93.007812 137.039062 93.257812 137.542969 93.414062 C 133.738281 106.4375 131.707031 119.699219 130.132812 133.105469 C 129.425781 139.101562 126.523438 144.835938 124.617188 150.6875 C 124.1875 151.996094 123.355469 152.085938 122.089844 151.824219 C 109.191406 149.1875 96.480469 145.992188 84.519531 140.277344 C 82.335938 139.234375 81.933594 138.429688 83.152344 136.195312 C 90.570312 122.570312 99.75 110.253906 110.332031 98.953125 C 110.957031 98.28125 111.746094 97.519531 112.578125 97.332031 C 120.421875 95.558594 128.289062 93.886719 136.304688 93.046875 Z M 83.75 131.183594 C 82.949219 132.574219 82.226562 134.007812 81.371094 135.359375 C 80.820312 136.226562 80.847656 137.960938 78.96875 137.15625 C 77.410156 136.484375 77.175781 135.335938 77.617188 133.871094 C 78.546875 130.796875 79.414062 127.707031 80.40625 124.652344 C 81.113281 122.492188 82.203125 120.441406 82.742188 118.246094 C 85.875 105.523438 94.808594 100.210938 107.578125 99.121094 C 98.160156 109.027344 90.355469 119.667969 83.75 131.183594 Z M 77.8125 138.554688 C 78.613281 138.898438 79.519531 139.21875 78.773438 140.527344 C 77.703125 142.402344 77.164062 144.578125 75.53125 146.375 C 74.601562 143.859375 76.054688 141.824219 76.175781 139.652344 C 76.222656 138.796875 76.832031 138.136719 77.8125 138.554688 Z M 72.742188 176.347656 C 72.730469 174.730469 72.546875 173.175781 74.5625 172.398438 C 89.054688 166.824219 104.144531 163.601562 119.445312 160.921875 C 121.316406 160.695312 121.671875 161.5625 121.191406 163.308594 C 117.332031 177.304688 115.125 191.601562 113.703125 206.019531 C 113.074219 212.429688 112.875 218.890625 112.648438 225.335938 C 112.574219 227.527344 112.167969 228.535156 109.652344 228 C 100.394531 226.015625 91.203125 223.808594 82.171875 220.929688 C 80.21875 220.308594 78.976562 219.398438 78.453125 217.292969 C 75.125 203.839844 72.855469 190.246094 72.742188 176.347656 Z M 110.171875 229.832031 C 113.328125 230.335938 112.644531 232.835938 112.53125 234.832031 C 112.429688 236.699219 113.625 238.945312 110.175781 239.773438 C 103.8125 241.300781 97.585938 243.421875 91.355469 245.457031 C 89.855469 245.949219 88.835938 246.1875 88.109375 244.507812 C 85.042969 237.425781 82.191406 230.269531 80.058594 222.292969 C 90.292969 225.382812 100.082031 228.230469 110.171875 229.832031 Z M 97.277344 245.058594 C 101.105469 243.855469 105.011719 242.914062 108.835938 241.703125 C 111.496094 240.859375 112.707031 240.988281 112.917969 244.441406 C 113.777344 258.640625 115.835938 272.675781 119.921875 286.351562 C 120.75 289.132812 121.65625 291.890625 122.523438 294.660156 C 110.1875 282.980469 100.734375 269.554688 93.121094 254.828125 C 89.382812 247.605469 89.460938 247.519531 97.277344 245.058594 Z M 140.6875 239.175781 C 140.113281 236.960938 140.359375 236.105469 142.960938 235.589844 C 148.410156 234.507812 153.726562 235.773438 158.992188 236.253906 C 166.222656 236.910156 173.480469 236.492188 180.695312 237.402344 C 183.234375 237.71875 183.75 238.496094 183.722656 240.796875 C 183.613281 249.667969 184.417969 284.878906 184.542969 293.613281 C 184.574219 295.898438 184.207031 296.933594 181.574219 297.046875 C 176.484375 297.261719 171.40625 297.851562 166.347656 298.472656 C 163.722656 298.792969 162.273438 297.988281 161.039062 295.53125 C 152.015625 277.542969 145.703125 258.601562 140.6875 239.175781 Z M 182.699219 298.742188 C 183.828125 298.675781 184.523438 298.980469 184.601562 300.207031 C 184.691406 301.570312 183.785156 301.746094 182.773438 301.703125 C 176.902344 301.4375 171.027344 301.152344 165.15625 300.875 C 170.957031 299.191406 176.839844 299.101562 182.699219 298.742188 Z M 182.859375 303.316406 C 184.269531 303.316406 185.117188 303.941406 185.21875 305.449219 C 185.753906 313.339844 186.3125 321.230469 186.835938 329.121094 C 186.851562 329.308594 186.585938 329.511719 186.148438 330.152344 C 177.421875 322.402344 170.863281 313.179688 165.558594 303.3125 C 171.421875 303.3125 177.140625 303.308594 182.859375 303.316406 Z M 188.21875 298.476562 C 191.40625 298.410156 194.597656 298.386719 197.789062 298.371094 C 198.71875 298.367188 199.300781 298.808594 199.25 299.816406 C 199.203125 300.789062 199.050781 301.742188 197.789062 301.777344 C 196.195312 301.816406 194.601562 301.785156 193.003906 301.785156 C 193.003906 301.773438 193.003906 301.761719 193.003906 301.746094 C 191.542969 301.746094 190.078125 301.757812 188.617188 301.746094 C 187.652344 301.734375 186.71875 301.671875 186.675781 300.34375 C 186.644531 299.25 187.058594 298.5 188.21875 298.476562 Z M 200.410156 305.980469 C 200.554688 304.234375 201.277344 303.679688 202.890625 303.613281 C 213.054688 303.210938 223.21875 302.761719 234.488281 302.28125 C 224.285156 316.070312 213.433594 327.523438 198.890625 334.988281 C 198.226562 335.332031 197.441406 336.078125 196.777344 335.3125 C 196.460938 334.949219 196.621094 334.054688 196.742188 333.433594 C 198.515625 324.355469 199.65625 315.191406 200.410156 305.980469 Z M 201.21875 300.199219 C 201.292969 298.410156 202.527344 298.417969 203.773438 298.511719 C 208.980469 298.90625 214.1875 299.335938 219.398438 299.742188 C 220.980469 299.863281 222.566406 299.960938 224.152344 300.066406 C 217.28125 301.941406 210.324219 301.703125 203.382812 301.757812 C 202.324219 301.769531 201.144531 301.875 201.21875 300.199219 Z M 233.097656 299.78125 C 223.84375 298.042969 214.457031 297.238281 205.0625 296.984375 C 201.585938 296.886719 201.417969 295.8125 201.652344 292.773438 C 202.777344 278.304688 203.574219 263.804688 204.472656 249.316406 C 204.5625 247.839844 204.507812 246.355469 204.578125 244.878906 C 204.910156 237.851562 204.9375 238.074219 211.738281 237.464844 C 221.902344 236.558594 232.109375 236.570312 242.277344 235.519531 C 247.210938 235.011719 252.367188 236.566406 257.414062 237.242188 C 258.96875 237.449219 259.125 238.566406 259.054688 239.9375 C 258.9375 242.21875 259.023438 244.507812 259.023438 246.796875 C 259.738281 253.050781 257.796875 258.679688 255.332031 264.3125 C 250.265625 275.894531 244.609375 287.136719 237.671875 297.726562 C 236.503906 299.511719 235.410156 300.214844 233.097656 299.78125 Z M 256.765625 266.160156 C 257.605469 270.765625 256.054688 275.164062 255.355469 279.570312 C 254.542969 284.679688 252.769531 289.628906 251.773438 294.722656 C 251.214844 297.578125 249.878906 298.851562 247.058594 299.003906 C 244.390625 299.148438 241.734375 299.523438 238.335938 299.871094 C 245.539062 288.75 251.347656 277.621094 256.765625 266.160156 Z M 253.390625 306.328125 C 255.515625 307.347656 259.050781 307.472656 259.433594 309.453125 C 259.761719 311.160156 256.339844 312.320312 254.5 313.578125 C 251.355469 315.730469 248.042969 317.636719 244.800781 319.644531 C 244.648438 319.425781 244.496094 319.207031 244.34375 318.984375 C 245.976562 315.328125 247.765625 311.734375 249.179688 307.996094 C 250.085938 305.605469 251.304688 305.324219 253.390625 306.328125 Z M 253.972656 304.785156 C 252.921875 304.285156 251.039062 304.511719 251.378906 302.425781 C 251.683594 300.535156 252.847656 299.980469 254.691406 299.695312 C 261.550781 298.636719 268.375 297.34375 275.214844 296.136719 C 275.367188 296.332031 275.519531 296.527344 275.671875 296.722656 C 271.503906 300.265625 267.324219 303.789062 263.179688 307.355469 C 262.164062 308.234375 261.296875 307.898438 260.253906 307.425781 C 258.1875 306.488281 256.023438 305.761719 253.972656 304.785156 Z M 252.855469 298.039062 C 256.777344 284.207031 258.859375 270.683594 260.472656 257.015625 C 261.132812 251.425781 264.019531 246.109375 265.761719 240.625 C 266.378906 238.679688 267.753906 239.050781 268.988281 239.296875 C 281.761719 241.835938 294.296875 245.15625 306.148438 250.722656 C 308.28125 251.726562 308.441406 252.792969 307.363281 254.765625 C 299.929688 268.367188 290.875 280.769531 280.179688 291.980469 C 279.449219 292.746094 278.746094 293.453125 277.574219 293.714844 C 269.621094 295.5 261.652344 297.183594 252.855469 298.039062 Z M 301.871094 267.539062 C 304.34375 263.558594 306.664062 259.484375 309.070312 255.464844 C 309.644531 254.5 309.929688 253.007812 311.667969 253.890625 C 312.980469 254.5625 313.253906 255.660156 312.90625 256.945312 C 310.253906 266.824219 306.652344 276.328125 301.6875 285.296875 C 301.203125 286.171875 300.484375 286.75 299.59375 287.078125 C 294.472656 288.972656 289.34375 290.839844 283.726562 291.652344 C 290.195312 283.839844 296.5625 276.085938 301.871094 267.539062 Z M 312.664062 252.449219 C 311.761719 252.066406 311.066406 251.582031 311.722656 250.355469 C 312.757812 248.417969 313.652344 246.410156 315.050781 243.515625 C 315.675781 246.976562 314.535156 249.070312 314.285156 251.28125 C 314.203125 251.984375 313.757812 252.914062 312.664062 252.449219 Z M 310.300781 249.003906 C 309.59375 250.460938 308.632812 250.191406 307.367188 249.570312 C 295.484375 243.726562 282.824219 240.351562 269.902344 237.789062 C 268.742188 237.558594 266.957031 237.683594 267.378906 235.535156 C 267.65625 234.121094 267.542969 232.367188 269.484375 232.085938 C 285.878906 229.714844 301.898438 225.835938 317.480469 220.082031 C 319.121094 230.917969 314.695312 239.957031 310.300781 249.003906 Z M 312.613281 219.890625 C 299.707031 224.332031 286.445312 227.25 273.070312 229.742188 C 268.785156 230.539062 268.71875 230.324219 269.78125 226.101562 C 274.71875 206.492188 277.1875 186.546875 277.832031 166.363281 C 277.921875 163.578125 278.152344 162.488281 281.519531 163.1875 C 290.671875 165.078125 299.699219 167.339844 308.597656 170.179688 C 310.527344 170.792969 311.511719 171.804688 311.988281 173.636719 C 315.277344 186.28125 317.121094 199.144531 317.859375 213.019531 C 319.121094 216.8125 316.554688 218.53125 312.613281 219.890625 Z M 328.933594 179.847656 C 336.925781 182.777344 342.207031 189.871094 342.066406 196.925781 C 341.992188 200.605469 339.921875 203.144531 337.597656 205.597656 C 334.074219 209.3125 329.851562 212 324.808594 214.453125 C 327.128906 202.71875 329.304688 191.480469 328.933594 179.847656 Z M 323.09375 128.484375 C 333.445312 146.378906 339.621094 165.273438 341.019531 185.753906 C 337.503906 182.761719 334.109375 179.953125 330.285156 177.75 C 328.757812 176.871094 328.890625 175.628906 328.914062 174.308594 C 329.148438 160.242188 326.511719 146.632812 322.425781 133.25 C 321.816406 131.261719 321.847656 131.25 323.09375 128.484375 Z M 326.703125 165.609375 C 326.855469 168.019531 327.035156 170.429688 327.164062 172.335938 C 327.800781 175.53125 326.796875 176.011719 324.570312 174.683594 C 324.453125 174.613281 324.339844 174.527344 324.214844 174.492188 C 315.398438 172.136719 309.972656 166.875 308.484375 157.496094 C 307.914062 153.886719 306.003906 150.433594 304.378906 147.0625 C 303.277344 144.773438 303.394531 143.613281 305.941406 142.554688 C 310.398438 140.695312 314.527344 138.15625 318.113281 134.882812 C 319.878906 133.269531 320.480469 133.398438 321.195312 135.792969 C 324.109375 145.542969 326.066406 155.449219 326.703125 165.609375 Z M 321.15625 121.921875 C 319.34375 119.292969 317.535156 116.660156 315.722656 114.03125 C 319.0625 115.613281 320.847656 118.269531 321.15625 121.921875 Z M 306.945312 99.640625 C 309.273438 102.5625 311.601562 105.484375 313.929688 108.402344 C 309.375 107.25 308.921875 102.839844 305.796875 100.550781 C 306.179688 100.246094 306.5625 99.945312 306.945312 99.640625 Z M 311.441406 112.347656 C 314.066406 117.613281 316.601562 122.902344 318.742188 128.394531 C 319.507812 130.363281 319.289062 131.613281 317.816406 132.988281 C 313.832031 136.703125 309.136719 139.25 304.292969 141.601562 C 301.910156 142.757812 301.585938 140.792969 300.933594 139.460938 C 295.417969 128.214844 288.859375 117.617188 281.152344 107.75 C 278.273438 104.066406 275.21875 100.523438 271.609375 96.148438 C 283.9375 98.785156 294.980469 101.839844 305.480469 106.707031 C 308.160156 107.949219 310.109375 109.675781 311.441406 112.347656 Z M 301.9375 100.472656 C 302.929688 101.5 303.847656 102.601562 304.800781 103.667969 C 294.796875 100.21875 284.890625 96.988281 274.675781 95.171875 C 268.546875 94.078125 265.347656 90.699219 263.132812 85.429688 C 262.402344 83.699219 262.523438 82.746094 264.175781 81.867188 C 265.230469 81.304688 266.539062 80.699219 267.0625 79.742188 C 270.125 74.148438 273.285156 77.125 276.628906 79.363281 C 285.8125 85.511719 294.265625 92.519531 301.9375 100.472656 Z M 270.96875 69.976562 C 277.914062 72.582031 294.210938 86.65625 298.359375 93.738281 C 297.027344 93.714844 296.476562 92.75 295.789062 92.132812 C 288.878906 85.960938 281.578125 80.296875 273.621094 75.542969 C 271.316406 74.167969 270.414062 72.53125 270.96875 69.976562 Z M 269.0625 72.019531 C 260.539062 66.859375 250.0625 65.402344 242.828125 57.875 C 252.539062 60.828125 263.191406 62.015625 269.0625 72.019531 Z M 240.699219 59.601562 C 234.058594 58.082031 227.59375 56.195312 221.0625 54.570312 C 227.875 55.269531 235.105469 54.222656 240.699219 59.601562 Z M 245.449219 63.84375 C 250.707031 66.230469 253.390625 72.074219 256.511719 76.921875 C 257.613281 78.632812 260.210938 81.210938 258.953125 82.257812 C 256.828125 84.023438 255.132812 80.824219 253.496094 79.542969 C 240.996094 69.796875 227.476562 61.949219 212.425781 56.84375 C 211.441406 56.507812 210.488281 56.082031 209.519531 55.699219 C 222.015625 56.484375 234.1875 58.730469 245.449219 63.84375 Z M 256.1875 83.964844 C 246.996094 86.800781 238.804688 90.363281 229.539062 88.613281 C 228.003906 88.324219 227.121094 87.597656 226.457031 86.40625 C 220.320312 75.445312 213.09375 65.363281 203.25 57.363281 C 203.015625 57.175781 203.0625 56.640625 202.863281 55.742188 C 222.847656 60.863281 239.984375 70.535156 256.1875 83.964844 Z M 196.699219 55.4375 C 198.792969 55.769531 201.222656 57.125 201.488281 60.101562 C 201.980469 65.695312 202.570312 71.277344 203.097656 76.867188 C 203.234375 78.332031 203.222656 79.816406 203.382812 81.277344 C 204.078125 87.601562 204.09375 87.601562 197.949219 87.503906 C 191.304688 87.402344 191.300781 87.402344 192.164062 80.792969 C 193.097656 73.636719 193.921875 66.464844 195.082031 59.34375 C 195.300781 58.011719 194.917969 55.152344 196.699219 55.4375 Z M 190.105469 84.9375 C 189.945312 87.417969 188.4375 87.609375 186.523438 87.5625 C 176.578125 87.335938 166.679688 88.234375 155.917969 88.953125 C 166.179688 74.515625 177.847656 62.628906 194.210938 54.628906 C 192.253906 65.277344 190.738281 75.054688 190.105469 84.9375 Z M 187.015625 56.042969 C 182.851562 59.191406 178.945312 61.953125 175.253906 64.980469 C 167.921875 70.988281 161.609375 78.003906 156.1875 85.746094 C 154.269531 88.488281 152.320312 88.824219 149.40625 88.082031 C 141.6875 86.113281 141.847656 86.265625 144.820312 78.863281 C 147.722656 71.640625 152.351562 66.773438 159.890625 64.0625 C 168.167969 61.085938 176.4375 58.15625 184.949219 55.945312 C 185.4375 55.816406 185.996094 55.984375 187.015625 56.042969 Z M 163.644531 56.605469 C 168.273438 56.152344 172.808594 54.78125 177.53125 55.359375 C 170.476562 58.253906 163.089844 59.992188 156.554688 63.890625 C 156.097656 64.164062 155.078125 64.105469 154.714844 63.773438 C 154.109375 63.226562 154.761719 62.566406 155.175781 62.089844 C 157.476562 59.46875 159.761719 56.988281 163.644531 56.605469 Z M 155.960938 56.222656 C 145.613281 59.175781 135.511719 62.835938 125.609375 66.984375 C 134.636719 60.179688 145.09375 57.601562 155.960938 56.222656 Z M 124.785156 69.832031 C 134.171875 65.269531 143.808594 61.453125 154.191406 59.292969 C 151.773438 63.375 149.546875 67.3125 145.007812 69.539062 C 139.871094 72.0625 135.125 75.371094 130.523438 78.832031 C 127.917969 80.792969 125.023438 79.589844 122.601562 75.726562 C 120.742188 72.761719 121.972656 71.199219 124.785156 69.832031 Z M 119.554688 72.921875 C 120.457031 75.964844 122.164062 78.480469 124.765625 80.292969 C 126.035156 81.175781 126.324219 81.785156 124.953125 82.964844 C 120.179688 87.070312 115.554688 91.34375 110.800781 95.46875 C 108.90625 97.109375 106.304688 97.03125 104.042969 97.78125 C 100.035156 99.105469 95.96875 100.253906 90.972656 101.761719 C 98.746094 89.535156 106.425781 78.703125 119.554688 72.921875 Z M 97.4375 88.578125 C 91.980469 95.089844 90.117188 105.117188 78.863281 106.890625 C 84.664062 99.6875 90.597656 93.679688 97.4375 88.578125 Z M 74.101562 113.363281 C 77.410156 110.25 81.347656 107.960938 86.585938 106.011719 C 82.019531 115.074219 78.65625 123.523438 76.300781 132.335938 C 75.628906 134.851562 74.761719 134.226562 73.359375 133.039062 C 66.699219 127.40625 66.855469 120.183594 74.101562 113.363281 Z M 66.332031 125.078125 C 68.128906 129.878906 70.785156 133.265625 74.265625 136.011719 C 75.441406 136.9375 74.742188 138.324219 74.546875 139.4375 C 72.671875 150.210938 70.839844 161 67.082031 171.328125 C 66.546875 172.792969 66.050781 174.125 64.367188 174.984375 C 58.644531 177.894531 53.234375 181.308594 48.476562 187.367188 C 49.789062 164.785156 55.363281 144.652344 66.332031 125.078125 Z M 48.675781 192.976562 C 50.296875 184.058594 58.253906 180.910156 65.460938 176.367188 C 64.378906 182.769531 63.238281 188.355469 62.539062 193.992188 C 61.855469 199.542969 61.621094 205.148438 61.128906 211.53125 C 53.832031 206.828125 46.96875 202.34375 48.675781 192.976562 Z M 67.660156 261.324219 C 66.34375 261.921875 66.199219 260.433594 65.820312 259.738281 C 56.410156 242.597656 50.582031 224.359375 48.878906 203.683594 C 52.433594 207.8125 55.699219 210.554688 59.421875 212.699219 C 60.933594 213.574219 61.289062 214.871094 61.3125 216.410156 C 61.5625 230.777344 63.886719 244.804688 68.1875 258.511719 C 68.519531 259.566406 68.882812 260.769531 67.660156 261.324219 Z M 69.390625 255.355469 C 66.507812 245.75 64.378906 236.023438 63.945312 225.996094 C 63.792969 222.523438 62.480469 219.125 63.335938 215.347656 C 67.8125 217.222656 71.964844 219.007812 76.15625 220.691406 C 77.5625 221.253906 78.230469 222.261719 78.625 223.617188 C 80.6875 230.699219 83.21875 237.617188 86.257812 244.328125 C 87.203125 246.421875 86.859375 247.398438 84.8125 248.285156 C 80.238281 250.257812 75.953125 252.753906 72.226562 256.117188 C 70.828125 257.382812 70.132812 257.828125 69.390625 255.355469 Z M 79.808594 279.894531 C 76.511719 274.25 74.0625 268.214844 71.628906 262.167969 C 70.957031 260.496094 71.289062 259.367188 72.457031 258.214844 C 76.445312 254.289062 81.28125 251.710938 86.28125 249.359375 C 88.757812 248.195312 88.957031 250.378906 89.582031 251.644531 C 95.503906 263.589844 102.539062 274.824219 110.890625 285.21875 C 113.222656 288.125 115.648438 290.957031 118.835938 294.785156 C 105.5625 291.976562 93.765625 288.695312 82.691406 283.109375 C 81.238281 282.375 80.539062 281.144531 79.808594 279.894531 Z M 86.105469 287.226562 C 94.101562 289.890625 102.003906 292.6875 110.195312 294.546875 C 112.019531 294.960938 113.820312 295.640625 115.664062 295.789062 C 122.042969 296.3125 125.277344 300.308594 127.433594 305.789062 C 127.976562 307.164062 128.117188 308.417969 126.722656 308.746094 C 123.132812 309.59375 121.992188 316.214844 118.105469 314.035156 C 105.882812 307.183594 95.316406 298.0625 86.105469 287.226562 Z M 119.429688 321.386719 C 108.316406 314.820312 99.214844 306.417969 91.003906 296.480469 C 92.4375 296.210938 92.894531 297.175781 93.472656 297.710938 C 100.6875 304.347656 108.40625 310.335938 116.800781 315.394531 C 119.070312 316.761719 119.902344 318.453125 119.429688 321.386719 Z M 121.183594 317.761719 C 129.859375 324.191406 140.28125 325.46875 147.894531 332.621094 C 139.800781 333.484375 122.890625 324.574219 121.183594 317.761719 Z M 148.589844 330.777344 C 155.722656 332.636719 161.96875 334.269531 168.210938 335.902344 C 161.625 335.617188 154.726562 336.554688 148.589844 330.777344 Z M 151.015625 329.589844 C 140.441406 326.789062 136.683594 317.78125 131.488281 309.941406 C 131.179688 309.480469 130.972656 308.949219 131.382812 308.476562 C 131.902344 307.871094 132.566406 307.949219 133.195312 308.328125 C 133.539062 308.535156 133.863281 308.777344 134.171875 309.039062 C 147.871094 320.542969 163.160156 329.246094 180.058594 335.339844 C 170.085938 334.789062 160.589844 332.125 151.015625 329.589844 Z M 175.863281 331.578125 C 161.601562 326.382812 148.765625 318.695312 136.9375 309.21875 C 134.582031 307.332031 134.96875 306.492188 137.546875 305.785156 C 145.011719 303.738281 152.339844 300.886719 160.351562 302.261719 C 161.566406 302.46875 162.742188 302.417969 163.433594 303.683594 C 169.664062 315.085938 177.472656 325.242188 187.226562 333.871094 C 187.375 334.003906 187.320312 334.367188 187.394531 334.863281 C 183.269531 334.5625 179.589844 332.9375 175.863281 331.578125 Z M 193.664062 335.410156 C 191.820312 335.195312 189.582031 334.058594 189.21875 331.949219 C 187.71875 323.214844 187.386719 314.347656 186.71875 305.519531 C 186.59375 303.871094 187.546875 303.472656 188.980469 303.535156 C 190.320312 303.59375 191.664062 303.546875 193.007812 303.546875 C 198.859375 303.875 198.863281 303.875 198.320312 309.992188 C 197.65625 317.46875 196.765625 324.917969 195.183594 332.261719 C 194.933594 333.410156 195.535156 335.628906 193.664062 335.410156 Z M 196.625 342.828125 C 195.902344 342.839844 194.550781 343.445312 194.667969 341.765625 C 194.765625 340.390625 195.59375 339.957031 196.871094 340.195312 C 198.289062 340.460938 199.65625 340.847656 201.210938 342.058594 C 199.503906 343.132812 198.019531 342.808594 196.625 342.828125 Z M 235.53125 303.679688 C 236.722656 302.027344 238.011719 301.398438 239.851562 302.65625 C 240.167969 302.871094 240.609375 302.910156 241 303.003906 C 248.761719 304.84375 248.601562 304.777344 245.640625 312 C 242.828125 318.855469 238.710938 323.917969 231.394531 326.574219 C 222.519531 329.789062 213.804688 333.386719 204.332031 334.527344 C 216.867188 326.210938 226.886719 315.640625 235.53125 303.679688 Z M 210.664062 336.234375 C 219.277344 333.300781 227.84375 330.261719 236.25 326.769531 C 230.339844 337.386719 219.65625 334.390625 210.664062 336.234375 Z M 235.585938 334.488281 C 245.253906 331.539062 254.765625 328.152344 264.140625 324.367188 C 255.671875 330.730469 245.84375 333.226562 235.585938 334.488281 Z M 265.984375 320.984375 C 256.246094 325.746094 246.230469 329.691406 235.3125 332.332031 C 238.878906 326.3125 243.257812 322.109375 249.085938 319.195312 C 252.996094 317.242188 256.460938 314.390625 260.117188 311.925781 C 262.621094 310.238281 265.726562 311.617188 267.910156 315.324219 C 269.492188 318.007812 268.792969 319.613281 265.984375 320.984375 Z M 279.710938 312.917969 C 278.484375 313.742188 277.175781 314.445312 276 315.335938 C 273.019531 317.585938 270.589844 318.617188 268.691406 313.929688 C 267.960938 312.121094 265.789062 310.890625 264.378906 309.5 C 273.675781 299.15625 284.289062 291.257812 298.382812 290.019531 C 296.738281 295.289062 285.871094 308.769531 279.710938 312.917969 Z M 292.792969 302.410156 C 298.441406 295.914062 300.414062 285.828125 310.71875 284.152344 C 309.40625 287.648438 299.097656 298.511719 292.792969 302.410156 Z M 319.980469 272.8125 C 316.449219 278.839844 310.824219 281.855469 304.667969 284.371094 C 308.519531 275.738281 311.898438 267.148438 314.28125 258.195312 C 314.71875 256.542969 315.277344 256.671875 316.453125 257.417969 C 321.921875 260.894531 323.230469 267.257812 319.980469 272.8125 Z M 316.953125 255.648438 C 315.722656 254.671875 315.5625 253.75 315.804688 252.21875 C 317.566406 241.011719 319.816406 229.921875 323.488281 219.160156 C 323.90625 217.9375 324.332031 216.796875 325.753906 216.117188 C 331.703125 213.285156 337.0625 209.59375 342.128906 203.558594 C 340.535156 226.304688 335.054688 246.574219 323.964844 266.191406 C 322.566406 261.289062 320.128906 258.167969 316.953125 255.648438 Z M 316.953125 255.648438 " fill-opacity="1" fill-rule="nonzero"/></g><g clip-path="url(#3e5de1883e)"><g clip-path="url(#53fd5f19ae)"><path fill="#0b0b0b" d="M 30.59375 30.65625 L 128.175781 30.65625 L 128.175781 128.699219 L 30.59375 128.699219 Z M 30.59375 30.65625 " fill-opacity="1" fill-rule="nonzero"/></g></g><g fill="#71dd10" fill-opacity="1"><g transform="translate(66.968311, 98.116126)"><g><path d="M 3.34375 0 L 23.789062 0 L 23.789062 -3.667969 L 16.128906 -3.667969 L 16.128906 -31.394531 C 16.128906 -34.253906 14.78125 -35.871094 11.058594 -35.871094 L 3.398438 -35.871094 L 3.398438 -32.203125 L 11.707031 -32.203125 L 11.707031 -3.667969 L 3.34375 -3.667969 Z M 3.34375 0 "/></g></g></g></svg>