<svg xmlns="http://www.w3.org/2000/svg" xmlns:xlink="http://www.w3.org/1999/xlink" width="1920" zoomAndPan="magnify" viewBox="0 0 1440 809.999993" height="1080" preserveAspectRatio="xMidYMid meet" version="1.0"><defs><g/><clipPath id="49a9bc1157"><path d="M 551.4375 170.3125 L 888.1875 170.3125 L 888.1875 342 L 551.4375 342 Z M 551.4375 170.3125 " clip-rule="nonzero"/></clipPath></defs><g fill="#fe502d" fill-opacity="1"><g transform="translate(49.675599, 638.304463)"><g><path d="M 3.074219 -0.121094 L 28.28125 -0.121094 C 28.28125 -0.121094 23.238281 -2.582031 23.238281 -17.214844 L 23.238281 -160.085938 C 23.238281 -174.71875 28.28125 -176.316406 28.28125 -176.316406 L 3.074219 -176.316406 C 3.074219 -176.316406 8.238281 -174.597656 8.238281 -159.964844 L 8.238281 -17.214844 C 8.238281 -2.582031 3.074219 -0.121094 3.074219 -0.121094 Z M 3.074219 -0.121094 "/></g></g></g><g fill="#fe502d" fill-opacity="1"><g transform="translate(83.486347, 638.304463)"><g><path d="M 118.035156 -0.121094 L 122.957031 -23.238281 C 122.957031 -23.363281 122.957031 -23.238281 122.957031 -23.238281 C 122.339844 -21.023438 116.316406 -4.917969 58.773438 -4.917969 L 24.960938 -4.917969 C 23.976562 -7.5 23.238281 -11.433594 23.238281 -17.214844 L 23.238281 -160.085938 C 23.238281 -174.71875 28.28125 -176.316406 28.28125 -176.316406 L 3.074219 -176.316406 C 3.074219 -176.316406 8.238281 -174.597656 8.238281 -159.964844 L 8.238281 -17.214844 C 8.238281 -2.582031 3.074219 -0.121094 3.074219 -0.121094 Z M 118.035156 -0.121094 "/></g></g></g><g fill="#fe502d" fill-opacity="1"><g transform="translate(211.967214, 638.304463)"><g><path d="M 118.035156 -0.121094 L 122.957031 -23.238281 C 122.957031 -23.363281 122.957031 -23.238281 122.957031 -23.238281 C 122.339844 -21.023438 116.316406 -4.917969 58.773438 -4.917969 L 24.960938 -4.917969 C 23.976562 -7.5 23.238281 -11.433594 23.238281 -17.214844 L 23.238281 -160.085938 C 23.238281 -174.71875 28.28125 -176.316406 28.28125 -176.316406 L 3.074219 -176.316406 C 3.074219 -176.316406 8.238281 -174.597656 8.238281 -159.964844 L 8.238281 -17.214844 C 8.238281 -2.582031 3.074219 -0.121094 3.074219 -0.121094 Z M 118.035156 -0.121094 "/></g></g></g><g fill="#fe502d" fill-opacity="1"><g transform="translate(340.44808, 638.304463)"><g><path d="M 8.238281 -58.402344 C 8.730469 -19.304688 30.738281 0 72.667969 0 C 108.691406 0 124.554688 -18.566406 124.675781 -65.78125 L 124.675781 -160.085938 C 124.675781 -174.71875 129.839844 -176.316406 129.839844 -176.316406 L 116.808594 -176.316406 C 116.808594 -176.316406 121.847656 -174.597656 121.847656 -159.964844 L 121.847656 -67.257812 C 121.847656 -21.886719 102.667969 -5.902344 72.667969 -5.902344 C 38.484375 -5.902344 23.238281 -29.261719 23.238281 -63.445312 C 23.238281 -165.128906 23.238281 -159.105469 23.238281 -159.105469 C 23.238281 -173.734375 28.28125 -176.316406 28.28125 -176.316406 L 3.074219 -176.316406 C 3.074219 -176.316406 8.238281 -173.734375 8.238281 -159.105469 Z M 8.238281 -58.402344 "/></g></g></g><g fill="#fe502d" fill-opacity="1"><g transform="translate(475.814054, 638.304463)"><g><path d="M 174.351562 -176.316406 L 156.277344 -176.316406 L 89.757812 -20.410156 L 23.117188 -176.316406 L 3.074219 -176.316406 C 3.074219 -176.316406 10.328125 -172.875 10.328125 -159.964844 L 10.328125 -17.214844 C 10.328125 -2.582031 5.285156 -0.121094 5.285156 -0.121094 L 18.320312 -0.121094 C 18.320312 -0.121094 13.15625 -2.582031 13.15625 -17.214844 C 13.15625 -17.214844 13.277344 -162.792969 13.277344 -164.023438 C 13.894531 -162.792969 84.839844 -0.121094 84.839844 -0.121094 C 84.839844 -0.121094 153.570312 -162.914062 154.1875 -164.269531 L 154.1875 -17.214844 C 154.1875 -2.582031 149.144531 -0.121094 149.144531 -0.121094 L 174.351562 -0.121094 C 174.351562 -0.121094 169.1875 -2.582031 169.1875 -17.214844 L 169.1875 -160.085938 C 169.1875 -174.71875 174.351562 -176.316406 174.351562 -176.316406 Z M 174.351562 -176.316406 "/></g></g></g><g fill="#fe502d" fill-opacity="1"><g transform="translate(655.68727, 638.304463)"><g><path d="M 3.074219 -0.121094 L 28.28125 -0.121094 C 28.28125 -0.121094 23.238281 -2.582031 23.238281 -17.214844 L 23.238281 -160.085938 C 23.238281 -174.71875 28.28125 -176.316406 28.28125 -176.316406 L 3.074219 -176.316406 C 3.074219 -176.316406 8.238281 -174.597656 8.238281 -159.964844 L 8.238281 -17.214844 C 8.238281 -2.582031 3.074219 -0.121094 3.074219 -0.121094 Z M 3.074219 -0.121094 "/></g></g></g><g fill="#fe502d" fill-opacity="1"><g transform="translate(689.498018, 638.304463)"><g><path d="M 125.046875 -20.410156 L 23.117188 -176.195312 L 3.074219 -176.195312 C 3.074219 -176.195312 8.976562 -172.507812 8.976562 -159.964844 L 8.976562 -17.214844 C 8.976562 -2.582031 3.933594 -0.121094 3.933594 -0.121094 L 16.96875 -0.121094 C 16.96875 -0.121094 11.804688 -2.582031 11.804688 -17.214844 L 11.804688 -160.085938 C 11.804688 -163.039062 12.050781 -165.496094 12.417969 -167.464844 C 13.769531 -165.496094 125.046875 -0.121094 125.046875 -0.121094 L 127.75 -0.121094 L 127.875 -160.085938 C 127.875 -174.71875 133.039062 -176.195312 133.039062 -176.195312 L 120.003906 -176.195312 C 120.003906 -176.195312 125.046875 -174.597656 125.046875 -159.964844 Z M 125.046875 -20.410156 "/></g></g></g><g fill="#fe502d" fill-opacity="1"><g transform="translate(828.060659, 638.304463)"><g><path d="M 126.027344 -0.121094 L 151.234375 -0.121094 C 151.234375 -0.121094 145.210938 -2.582031 139.429688 -17.214844 L 77.214844 -176.195312 L 14.878906 -17.214844 C 9.222656 -2.582031 3.074219 -0.121094 3.074219 -0.121094 L 16.105469 -0.121094 C 16.105469 -0.121094 12.050781 -2.582031 17.707031 -17.214844 L 31.84375 -53.117188 L 110.414062 -53.117188 L 124.429688 -17.214844 C 130.210938 -2.582031 126.027344 -0.121094 126.027344 -0.121094 Z M 32.953125 -56.066406 L 71.066406 -153.570312 L 109.308594 -56.066406 Z M 32.953125 -56.066406 "/></g></g></g><g fill="#fe502d" fill-opacity="1"><g transform="translate(984.819618, 638.304463)"><g><path d="M 129.59375 -176.316406 L 8.113281 -176.316406 L 3.074219 -152.832031 C 3.074219 -152.832031 9.222656 -170.046875 59.757812 -171.398438 C 60.738281 -168.816406 61.601562 -164.882812 61.601562 -159.105469 L 61.601562 -16.351562 C 61.601562 -1.722656 56.4375 -0.121094 56.4375 -0.121094 L 81.640625 -0.121094 C 81.640625 -0.121094 76.601562 -1.597656 76.601562 -16.230469 L 76.601562 -159.105469 C 76.601562 -164.882812 77.339844 -168.816406 78.324219 -171.398438 C 128.488281 -169.925781 134.636719 -152.832031 134.636719 -152.832031 Z M 129.59375 -176.316406 "/></g></g></g><g fill="#fe502d" fill-opacity="1"><g transform="translate(1124.980591, 638.304463)"><g><path d="M 67.75 -86.070312 L 67.75 -115.085938 C 67.75 -115.085938 62.832031 -102.667969 38.238281 -102.667969 L 23.238281 -102.667969 L 23.238281 -160.085938 C 23.238281 -165.375 23.851562 -169.0625 24.714844 -171.398438 L 54.839844 -171.398438 C 112.382812 -171.398438 119.144531 -152.832031 119.144531 -152.832031 L 114.101562 -176.316406 L 3.074219 -176.316406 C 3.074219 -176.316406 8.238281 -174.597656 8.238281 -159.964844 L 8.238281 -17.214844 C 8.238281 -2.582031 3.074219 -0.121094 3.074219 -0.121094 L 114.101562 -0.121094 L 119.144531 -23.484375 C 119.144531 -23.484375 112.382812 -4.917969 54.839844 -4.917969 L 24.960938 -4.917969 C 23.976562 -7.5 23.238281 -11.433594 23.238281 -17.214844 L 23.238281 -98.488281 L 38.238281 -98.488281 C 62.832031 -98.488281 67.75 -86.070312 67.75 -86.070312 Z M 67.75 -86.070312 "/></g></g></g><g fill="#fe502d" fill-opacity="1"><g transform="translate(1249.650073, 638.304463)"><g><path d="M 42.296875 -176.195312 C 38.484375 -176.195312 3.074219 -176.195312 3.074219 -176.195312 C 3.074219 -176.195312 8.238281 -174.597656 8.238281 -159.964844 L 8.238281 -17.214844 C 8.238281 -2.582031 3.074219 -0.121094 3.074219 -0.121094 C 3.074219 -0.121094 39.835938 -0.121094 43.28125 -0.121094 C 107.707031 -0.121094 135.128906 -39.589844 135.128906 -88.035156 C 135.128906 -136.480469 110.535156 -176.195312 42.296875 -176.195312 Z M 38.609375 -5.53125 L 24.714844 -5.53125 C 23.851562 -7.992188 23.238281 -11.804688 23.238281 -17.214844 L 23.238281 -160.085938 C 23.238281 -165.496094 23.851562 -169.0625 24.714844 -171.523438 L 38.609375 -171.523438 C 103.035156 -171.523438 119.511719 -133.898438 119.511719 -88.40625 C 119.511719 -42.789062 102.296875 -5.53125 38.609375 -5.53125 Z M 38.609375 -5.53125 "/></g></g></g><g clip-path="url(#49a9bc1157)"><path fill="#005eff" d="M 884.691406 265.785156 C 879.691406 261.933594 874.621094 258.351562 869.488281 254.90625 L 881.917969 247.675781 C 886.988281 244.703125 888.742188 238.148438 885.769531 233.082031 C 882.796875 228.015625 876.242188 226.257812 871.175781 229.230469 L 849.082031 242.070312 C 843.472656 238.824219 837.867188 235.851562 832.257812 233.082031 L 846.242188 216.394531 C 850.027344 211.867188 849.417969 205.175781 844.890625 201.324219 C 840.367188 197.542969 833.675781 198.148438 829.824219 202.609375 L 811.851562 224.027344 C 802.390625 220.246094 792.796875 217.136719 783.203125 214.570312 L 790.164062 195.515625 C 792.191406 189.972656 789.351562 183.824219 783.8125 181.867188 C 778.269531 179.839844 772.121094 182.675781 770.164062 188.21875 L 762.257812 209.972656 C 752.324219 208.285156 742.394531 207.203125 732.324219 206.796875 L 732.324219 180.988281 C 732.324219 175.109375 727.527344 170.3125 721.648438 170.3125 C 715.769531 170.3125 710.972656 175.109375 710.972656 180.988281 L 710.972656 206.867188 C 700.636719 207.339844 690.636719 208.488281 681.109375 210.109375 L 673.136719 188.148438 C 671.109375 182.609375 664.960938 179.769531 659.488281 181.796875 C 653.945312 183.824219 651.109375 189.90625 653.136719 195.445312 L 660.09375 214.636719 C 649.894531 217.269531 640.230469 220.445312 631.3125 223.894531 L 613.40625 202.542969 C 609.621094 198.015625 602.867188 197.40625 598.339844 201.257812 C 593.8125 205.042969 593.203125 211.796875 597.054688 216.324219 L 610.839844 232.8125 C 603.609375 236.257812 597.054688 239.839844 591.246094 243.21875 L 567.121094 229.164062 C 562.054688 226.191406 555.5 227.945312 552.527344 233.015625 C 549.554688 238.082031 551.3125 244.636719 556.378906 247.609375 L 571.042969 256.191406 C 563.203125 261.730469 558.675781 265.648438 558 266.257812 C 555.636719 268.351562 554.285156 271.460938 554.421875 274.636719 C 554.554688 277.8125 556.042969 280.785156 558.609375 282.742188 C 609.960938 322 664.554688 341.933594 720.839844 341.933594 C 816.582031 341.933594 882.460938 284.703125 885.230469 282.269531 C 887.59375 280.175781 888.945312 277.070312 888.8125 273.894531 C 888.742188 270.71875 887.257812 267.746094 884.691406 265.785156 Z M 721.648438 317.609375 C 698.203125 317.609375 679.148438 298.554688 679.148438 275.109375 C 679.148438 251.664062 698.203125 232.609375 721.648438 232.609375 C 745.09375 232.609375 764.148438 251.664062 764.148438 275.109375 C 764.148438 298.554688 745.09375 317.609375 721.648438 317.609375 Z M 673.203125 233.621094 C 663.609375 244.769531 657.796875 259.296875 657.796875 275.109375 C 657.796875 290.109375 663.070312 303.894531 671.71875 314.839844 C 641.378906 307.742188 611.648438 294.164062 582.867188 274.027344 C 598.609375 262.878906 630.769531 243.21875 673.203125 233.621094 Z M 771.851562 314.5 C 780.367188 303.621094 785.566406 289.972656 785.566406 275.109375 C 785.566406 259.09375 779.621094 244.5 769.824219 233.285156 C 800.769531 240.246094 831.042969 253.960938 860.433594 274.5 C 844.824219 285.445312 813.269531 304.703125 771.851562 314.5 Z M 771.851562 314.5 " fill-opacity="1" fill-rule="nonzero"/></g></svg>