<svg xmlns="http://www.w3.org/2000/svg" xmlns:xlink="http://www.w3.org/1999/xlink" width="500" zoomAndPan="magnify" viewBox="0 0 375 374.999991" height="500" preserveAspectRatio="xMidYMid meet" version="1.0"><defs><clipPath id="788ee61006"><path d="M 32.574219 108.628906 L 342.324219 108.628906 L 342.324219 266.128906 L 32.574219 266.128906 Z M 32.574219 108.628906 " clip-rule="nonzero"/></clipPath></defs><g clip-path="url(#788ee61006)"><path fill="#005eff" d="M 338.867188 196.375 C 334.269531 192.835938 329.613281 189.542969 324.894531 186.378906 L 336.320312 179.734375 C 340.976562 177 342.59375 170.976562 339.859375 166.320312 C 337.128906 161.660156 331.105469 160.046875 326.445312 162.78125 L 306.140625 174.578125 C 300.984375 171.597656 295.832031 168.867188 290.675781 166.320312 L 303.53125 150.980469 C 307.007812 146.820312 306.449219 140.671875 302.289062 137.132812 C 298.128906 133.65625 291.980469 134.214844 288.441406 138.3125 L 271.921875 157.996094 C 263.230469 154.519531 254.410156 151.664062 245.59375 149.304688 L 251.988281 131.792969 C 253.851562 126.699219 251.242188 121.046875 246.152344 119.246094 C 241.058594 117.382812 235.40625 119.992188 233.605469 125.085938 L 226.339844 145.082031 C 217.210938 143.527344 208.082031 142.535156 198.832031 142.164062 L 198.832031 118.441406 C 198.832031 113.039062 194.421875 108.628906 189.019531 108.628906 C 183.617188 108.628906 179.207031 113.039062 179.207031 118.441406 L 179.207031 142.222656 C 169.707031 142.660156 160.515625 143.714844 151.757812 145.207031 L 144.429688 125.023438 C 142.566406 119.929688 136.917969 117.320312 131.886719 119.183594 C 126.792969 121.046875 124.1875 126.636719 126.050781 131.730469 L 132.445312 149.367188 C 123.070312 151.789062 114.1875 154.707031 105.992188 157.875 L 89.535156 138.25 C 86.058594 134.089844 79.847656 133.53125 75.6875 137.070312 C 71.527344 140.546875 70.964844 146.757812 74.507812 150.917969 L 87.175781 166.070312 C 80.53125 169.238281 74.507812 172.527344 69.164062 175.632812 L 46.996094 162.71875 C 42.339844 159.984375 36.316406 161.597656 33.582031 166.257812 C 30.851562 170.914062 32.464844 176.9375 37.121094 179.671875 L 50.597656 187.558594 C 43.394531 192.648438 39.234375 196.25 38.613281 196.808594 C 36.4375 198.734375 35.195312 201.59375 35.320312 204.511719 C 35.445312 207.429688 36.8125 210.160156 39.171875 211.960938 C 86.367188 248.042969 136.542969 266.363281 188.273438 266.363281 C 276.269531 266.363281 336.816406 213.765625 339.363281 211.527344 C 341.535156 209.601562 342.777344 206.746094 342.65625 203.828125 C 342.59375 200.910156 341.226562 198.175781 338.867188 196.375 Z M 189.019531 244.007812 C 167.46875 244.007812 149.957031 226.496094 149.957031 204.945312 C 149.957031 183.398438 167.46875 165.882812 189.019531 165.882812 C 210.566406 165.882812 228.078125 183.398438 228.078125 204.945312 C 228.078125 226.496094 210.566406 244.007812 189.019531 244.007812 Z M 144.492188 166.816406 C 135.675781 177.0625 130.335938 190.414062 130.335938 204.945312 C 130.335938 218.730469 135.179688 231.398438 143.128906 241.460938 C 115.242188 234.941406 87.921875 222.457031 61.464844 203.953125 C 75.933594 193.707031 105.496094 175.632812 144.492188 166.816406 Z M 235.160156 241.148438 C 242.984375 231.152344 247.765625 218.609375 247.765625 204.945312 C 247.765625 190.226562 242.300781 176.8125 233.296875 166.503906 C 261.738281 172.902344 289.558594 185.507812 316.574219 204.386719 C 302.226562 214.445312 273.226562 232.144531 235.160156 241.148438 Z M 235.160156 241.148438 " fill-opacity="1" fill-rule="nonzero"/></g></svg>