<svg xmlns="http://www.w3.org/2000/svg" xmlns:xlink="http://www.w3.org/1999/xlink" width="1000" zoomAndPan="magnify" viewBox="0 0 750 374.999991" height="500" preserveAspectRatio="xMidYMid meet" version="1.0"><defs><g/></defs><g fill="#fe502d" fill-opacity="1"><g transform="translate(29.022638, 224.624985)"><g><path d="M 1.585938 -0.0625 L 14.59375 -0.0625 C 14.59375 -0.0625 11.992188 -1.332031 11.992188 -8.882812 L 11.992188 -82.621094 C 11.992188 -90.171875 14.59375 -91 14.59375 -91 L 1.585938 -91 C 1.585938 -91 4.25 -90.109375 4.25 -82.558594 L 4.25 -8.882812 C 4.25 -1.332031 1.585938 -0.0625 1.585938 -0.0625 Z M 1.585938 -0.0625 "/></g></g></g><g fill="#fe502d" fill-opacity="1"><g transform="translate(46.473298, 224.624985)"><g><path d="M 60.917969 -0.0625 L 63.457031 -11.992188 C 63.457031 -12.058594 63.457031 -11.992188 63.457031 -11.992188 C 63.140625 -10.851562 60.03125 -2.539062 30.332031 -2.539062 L 12.882812 -2.539062 C 12.375 -3.871094 11.992188 -5.902344 11.992188 -8.882812 L 11.992188 -82.621094 C 11.992188 -90.171875 14.59375 -91 14.59375 -91 L 1.585938 -91 C 1.585938 -91 4.25 -90.109375 4.25 -82.558594 L 4.25 -8.882812 C 4.25 -1.332031 1.585938 -0.0625 1.585938 -0.0625 Z M 60.917969 -0.0625 "/></g></g></g><g fill="#fe502d" fill-opacity="1"><g transform="translate(112.785809, 224.624985)"><g><path d="M 60.917969 -0.0625 L 63.457031 -11.992188 C 63.457031 -12.058594 63.457031 -11.992188 63.457031 -11.992188 C 63.140625 -10.851562 60.03125 -2.539062 30.332031 -2.539062 L 12.882812 -2.539062 C 12.375 -3.871094 11.992188 -5.902344 11.992188 -8.882812 L 11.992188 -82.621094 C 11.992188 -90.171875 14.59375 -91 14.59375 -91 L 1.585938 -91 C 1.585938 -91 4.25 -90.109375 4.25 -82.558594 L 4.25 -8.882812 C 4.25 -1.332031 1.585938 -0.0625 1.585938 -0.0625 Z M 60.917969 -0.0625 "/></g></g></g><g fill="#fe502d" fill-opacity="1"><g transform="translate(179.098319, 224.624985)"><g><path d="M 4.25 -30.140625 C 4.503906 -9.960938 15.863281 0 37.503906 0 C 56.097656 0 64.28125 -9.582031 64.347656 -33.949219 L 64.347656 -82.621094 C 64.347656 -90.171875 67.011719 -91 67.011719 -91 L 60.285156 -91 C 60.285156 -91 62.886719 -90.109375 62.886719 -82.558594 L 62.886719 -34.710938 C 62.886719 -11.296875 52.988281 -3.046875 37.503906 -3.046875 C 19.863281 -3.046875 11.992188 -15.101562 11.992188 -32.742188 C 11.992188 -85.222656 11.992188 -82.113281 11.992188 -82.113281 C 11.992188 -89.664062 14.59375 -91 14.59375 -91 L 1.585938 -91 C 1.585938 -91 4.25 -89.664062 4.25 -82.113281 Z M 4.25 -30.140625 "/></g></g></g><g fill="#fe502d" fill-opacity="1"><g transform="translate(248.964427, 224.624985)"><g><path d="M 89.984375 -91 L 80.65625 -91 L 46.324219 -10.535156 L 11.929688 -91 L 1.585938 -91 C 1.585938 -91 5.332031 -89.222656 5.332031 -82.558594 L 5.332031 -8.882812 C 5.332031 -1.332031 2.730469 -0.0625 2.730469 -0.0625 L 9.457031 -0.0625 C 9.457031 -0.0625 6.789062 -1.332031 6.789062 -8.882812 C 6.789062 -8.882812 6.851562 -84.019531 6.851562 -84.652344 C 7.171875 -84.019531 43.785156 -0.0625 43.785156 -0.0625 C 43.785156 -0.0625 79.257812 -84.082031 79.574219 -84.777344 L 79.574219 -8.882812 C 79.574219 -1.332031 76.972656 -0.0625 76.972656 -0.0625 L 89.984375 -0.0625 C 89.984375 -0.0625 87.316406 -1.332031 87.316406 -8.882812 L 87.316406 -82.621094 C 87.316406 -90.171875 89.984375 -91 89.984375 -91 Z M 89.984375 -91 "/></g></g></g><g fill="#fe502d" fill-opacity="1"><g transform="translate(341.801938, 224.624985)"><g><path d="M 1.585938 -0.0625 L 14.59375 -0.0625 C 14.59375 -0.0625 11.992188 -1.332031 11.992188 -8.882812 L 11.992188 -82.621094 C 11.992188 -90.171875 14.59375 -91 14.59375 -91 L 1.585938 -91 C 1.585938 -91 4.25 -90.109375 4.25 -82.558594 L 4.25 -8.882812 C 4.25 -1.332031 1.585938 -0.0625 1.585938 -0.0625 Z M 1.585938 -0.0625 "/></g></g></g><g fill="#fe502d" fill-opacity="1"><g transform="translate(359.252598, 224.624985)"><g><path d="M 64.535156 -10.535156 L 11.929688 -90.933594 L 1.585938 -90.933594 C 1.585938 -90.933594 4.632812 -89.03125 4.632812 -82.558594 L 4.632812 -8.882812 C 4.632812 -1.332031 2.03125 -0.0625 2.03125 -0.0625 L 8.757812 -0.0625 C 8.757812 -0.0625 6.09375 -1.332031 6.09375 -8.882812 L 6.09375 -82.621094 C 6.09375 -84.144531 6.21875 -85.414062 6.410156 -86.429688 C 7.105469 -85.414062 64.535156 -0.0625 64.535156 -0.0625 L 65.933594 -0.0625 L 65.996094 -82.621094 C 65.996094 -90.171875 68.660156 -90.933594 68.660156 -90.933594 L 61.933594 -90.933594 C 61.933594 -90.933594 64.535156 -90.109375 64.535156 -82.558594 Z M 64.535156 -10.535156 "/></g></g></g><g fill="#fe502d" fill-opacity="1"><g transform="translate(430.768553, 224.624985)"><g><path d="M 65.042969 -0.0625 L 78.050781 -0.0625 C 78.050781 -0.0625 74.941406 -1.332031 71.960938 -8.882812 L 39.851562 -90.933594 L 7.679688 -8.882812 C 4.757812 -1.332031 1.585938 -0.0625 1.585938 -0.0625 L 8.3125 -0.0625 C 8.3125 -0.0625 6.21875 -1.332031 9.136719 -8.882812 L 16.433594 -27.414062 L 56.984375 -27.414062 L 64.21875 -8.882812 C 67.203125 -1.332031 65.042969 -0.0625 65.042969 -0.0625 Z M 17.007812 -28.9375 L 36.679688 -79.257812 L 56.414062 -28.9375 Z M 17.007812 -28.9375 "/></g></g></g><g fill="#fe502d" fill-opacity="1"><g transform="translate(511.676171, 224.624985)"><g><path d="M 66.882812 -91 L 4.1875 -91 L 1.585938 -78.878906 C 1.585938 -78.878906 4.757812 -87.761719 30.839844 -88.460938 C 31.347656 -87.128906 31.792969 -85.097656 31.792969 -82.113281 L 31.792969 -8.441406 C 31.792969 -0.886719 29.128906 -0.0625 29.128906 -0.0625 L 42.136719 -0.0625 C 42.136719 -0.0625 39.535156 -0.824219 39.535156 -8.375 L 39.535156 -82.113281 C 39.535156 -85.097656 39.914062 -87.128906 40.421875 -88.460938 C 66.3125 -87.699219 69.484375 -78.878906 69.484375 -78.878906 Z M 66.882812 -91 "/></g></g></g><g fill="#fe502d" fill-opacity="1"><g transform="translate(584.017109, 224.624985)"><g><path d="M 34.964844 -44.421875 L 34.964844 -59.394531 C 34.964844 -59.394531 32.425781 -52.988281 19.734375 -52.988281 L 11.992188 -52.988281 L 11.992188 -82.621094 C 11.992188 -85.351562 12.3125 -87.253906 12.753906 -88.460938 L 28.300781 -88.460938 C 58 -88.460938 61.492188 -78.878906 61.492188 -78.878906 L 58.886719 -91 L 1.585938 -91 C 1.585938 -91 4.25 -90.109375 4.25 -82.558594 L 4.25 -8.882812 C 4.25 -1.332031 1.585938 -0.0625 1.585938 -0.0625 L 58.886719 -0.0625 L 61.492188 -12.121094 C 61.492188 -12.121094 58 -2.539062 28.300781 -2.539062 L 12.882812 -2.539062 C 12.375 -3.871094 11.992188 -5.902344 11.992188 -8.882812 L 11.992188 -50.828125 L 19.734375 -50.828125 C 32.425781 -50.828125 34.964844 -44.421875 34.964844 -44.421875 Z M 34.964844 -44.421875 "/></g></g></g><g fill="#fe502d" fill-opacity="1"><g transform="translate(648.362472, 224.624985)"><g><path d="M 21.828125 -90.933594 C 19.863281 -90.933594 1.585938 -90.933594 1.585938 -90.933594 C 1.585938 -90.933594 4.25 -90.109375 4.25 -82.558594 L 4.25 -8.882812 C 4.25 -1.332031 1.585938 -0.0625 1.585938 -0.0625 C 1.585938 -0.0625 20.558594 -0.0625 22.335938 -0.0625 C 55.589844 -0.0625 69.738281 -20.433594 69.738281 -45.4375 C 69.738281 -70.4375 57.046875 -90.933594 21.828125 -90.933594 Z M 19.925781 -2.855469 L 12.753906 -2.855469 C 12.3125 -4.125 11.992188 -6.09375 11.992188 -8.882812 L 11.992188 -82.621094 C 11.992188 -85.414062 12.3125 -87.253906 12.753906 -88.523438 L 19.925781 -88.523438 C 53.175781 -88.523438 61.679688 -69.105469 61.679688 -45.625 C 61.679688 -22.082031 52.796875 -2.855469 19.925781 -2.855469 Z M 19.925781 -2.855469 "/></g></g></g></svg>