<svg xmlns="http://www.w3.org/2000/svg" xmlns:xlink="http://www.w3.org/1999/xlink" width="1920" zoomAndPan="magnify" viewBox="0 0 1440 809.999993" height="1080" preserveAspectRatio="xMidYMid meet" version="1.0"><defs><g/><clipPath id="2f8bd7897f"><path d="M 99.722656 201.835938 L 417.722656 201.835938 L 417.722656 363.835938 L 99.722656 363.835938 Z M 99.722656 201.835938 " clip-rule="nonzero"/></clipPath></defs><g fill="#fe502d" fill-opacity="1"><g transform="translate(99.721657, 606.859489)"><g><path d="M 2.902344 -0.117188 L 26.6875 -0.117188 C 26.6875 -0.117188 21.929688 -2.4375 21.929688 -16.246094 L 21.929688 -151.082031 C 21.929688 -164.890625 26.6875 -166.398438 26.6875 -166.398438 L 2.902344 -166.398438 C 2.902344 -166.398438 7.773438 -164.777344 7.773438 -150.96875 L 7.773438 -16.246094 C 7.773438 -2.4375 2.902344 -0.117188 2.902344 -0.117188 Z M 2.902344 -0.117188 "/></g></g></g><g fill="#fe502d" fill-opacity="1"><g transform="translate(131.630551, 606.859489)"><g><path d="M 111.398438 -0.117188 L 116.039062 -21.929688 C 116.039062 -22.046875 116.039062 -21.929688 116.039062 -21.929688 C 115.457031 -19.84375 109.773438 -4.640625 55.464844 -4.640625 L 23.554688 -4.640625 C 22.628906 -7.078125 21.929688 -10.792969 21.929688 -16.246094 L 21.929688 -151.082031 C 21.929688 -164.890625 26.6875 -166.398438 26.6875 -166.398438 L 2.902344 -166.398438 C 2.902344 -166.398438 7.773438 -164.777344 7.773438 -150.96875 L 7.773438 -16.246094 C 7.773438 -2.4375 2.902344 -0.117188 2.902344 -0.117188 Z M 111.398438 -0.117188 "/></g></g></g><g fill="#fe502d" fill-opacity="1"><g transform="translate(252.884366, 606.859489)"><g><path d="M 111.398438 -0.117188 L 116.039062 -21.929688 C 116.039062 -22.046875 116.039062 -21.929688 116.039062 -21.929688 C 115.457031 -19.84375 109.773438 -4.640625 55.464844 -4.640625 L 23.554688 -4.640625 C 22.628906 -7.078125 21.929688 -10.792969 21.929688 -16.246094 L 21.929688 -151.082031 C 21.929688 -164.890625 26.6875 -166.398438 26.6875 -166.398438 L 2.902344 -166.398438 C 2.902344 -166.398438 7.773438 -164.777344 7.773438 -150.96875 L 7.773438 -16.246094 C 7.773438 -2.4375 2.902344 -0.117188 2.902344 -0.117188 Z M 111.398438 -0.117188 "/></g></g></g><g fill="#fe502d" fill-opacity="1"><g transform="translate(374.138181, 606.859489)"><g><path d="M 7.773438 -55.117188 C 8.238281 -18.21875 29.011719 0 68.578125 0 C 102.578125 0 117.546875 -17.523438 117.664062 -62.082031 L 117.664062 -151.082031 C 117.664062 -164.890625 122.539062 -166.398438 122.539062 -166.398438 L 110.238281 -166.398438 C 110.238281 -166.398438 114.996094 -164.777344 114.996094 -150.96875 L 114.996094 -63.472656 C 114.996094 -20.65625 96.894531 -5.570312 68.578125 -5.570312 C 36.320312 -5.570312 21.929688 -27.617188 21.929688 -59.875 C 21.929688 -155.839844 21.929688 -150.15625 21.929688 -150.15625 C 21.929688 -163.964844 26.6875 -166.398438 26.6875 -166.398438 L 2.902344 -166.398438 C 2.902344 -166.398438 7.773438 -163.964844 7.773438 -150.15625 Z M 7.773438 -55.117188 "/></g></g></g><g fill="#fe502d" fill-opacity="1"><g transform="translate(501.889818, 606.859489)"><g><path d="M 164.542969 -166.398438 L 147.484375 -166.398438 L 84.707031 -19.261719 L 21.816406 -166.398438 L 2.902344 -166.398438 C 2.902344 -166.398438 9.746094 -163.152344 9.746094 -150.96875 L 9.746094 -16.246094 C 9.746094 -2.4375 4.988281 -0.117188 4.988281 -0.117188 L 17.289062 -0.117188 C 17.289062 -0.117188 12.417969 -2.4375 12.417969 -16.246094 C 12.417969 -16.246094 12.53125 -153.636719 12.53125 -154.796875 C 13.113281 -153.636719 80.066406 -0.117188 80.066406 -0.117188 C 80.066406 -0.117188 144.933594 -153.75 145.511719 -155.027344 L 145.511719 -16.246094 C 145.511719 -2.4375 140.753906 -0.117188 140.753906 -0.117188 L 164.542969 -0.117188 C 164.542969 -0.117188 159.667969 -2.4375 159.667969 -16.246094 L 159.667969 -151.082031 C 159.667969 -164.890625 164.542969 -166.398438 164.542969 -166.398438 Z M 164.542969 -166.398438 "/></g></g></g><g fill="#fe502d" fill-opacity="1"><g transform="translate(671.645162, 606.859489)"><g><path d="M 2.902344 -0.117188 L 26.6875 -0.117188 C 26.6875 -0.117188 21.929688 -2.4375 21.929688 -16.246094 L 21.929688 -151.082031 C 21.929688 -164.890625 26.6875 -166.398438 26.6875 -166.398438 L 2.902344 -166.398438 C 2.902344 -166.398438 7.773438 -164.777344 7.773438 -150.96875 L 7.773438 -16.246094 C 7.773438 -2.4375 2.902344 -0.117188 2.902344 -0.117188 Z M 2.902344 -0.117188 "/></g></g></g><g fill="#fe502d" fill-opacity="1"><g transform="translate(703.554056, 606.859489)"><g><path d="M 118.011719 -19.261719 L 21.816406 -166.285156 L 2.902344 -166.285156 C 2.902344 -166.285156 8.472656 -162.804688 8.472656 -150.96875 L 8.472656 -16.246094 C 8.472656 -2.4375 3.714844 -0.117188 3.714844 -0.117188 L 16.011719 -0.117188 C 16.011719 -0.117188 11.140625 -2.4375 11.140625 -16.246094 L 11.140625 -151.082031 C 11.140625 -153.867188 11.371094 -156.1875 11.71875 -158.046875 C 12.996094 -156.1875 118.011719 -0.117188 118.011719 -0.117188 L 120.566406 -0.117188 L 120.679688 -151.082031 C 120.679688 -164.890625 125.554688 -166.285156 125.554688 -166.285156 L 113.253906 -166.285156 C 113.253906 -166.285156 118.011719 -164.777344 118.011719 -150.96875 Z M 118.011719 -19.261719 "/></g></g></g><g fill="#fe502d" fill-opacity="1"><g transform="translate(834.322546, 606.859489)"><g><path d="M 118.941406 -0.117188 L 142.726562 -0.117188 C 142.726562 -0.117188 137.042969 -2.4375 131.589844 -16.246094 L 72.871094 -166.285156 L 14.039062 -16.246094 C 8.703125 -2.4375 2.902344 -0.117188 2.902344 -0.117188 L 15.199219 -0.117188 C 15.199219 -0.117188 11.371094 -2.4375 16.710938 -16.246094 L 30.054688 -50.128906 L 104.203125 -50.128906 L 117.429688 -16.246094 C 122.886719 -2.4375 118.941406 -0.117188 118.941406 -0.117188 Z M 31.097656 -52.914062 L 67.070312 -144.933594 L 103.160156 -52.914062 Z M 31.097656 -52.914062 "/></g></g></g><g fill="#fe502d" fill-opacity="1"><g transform="translate(982.263811, 606.859489)"><g><path d="M 122.304688 -166.398438 L 7.660156 -166.398438 L 2.902344 -144.238281 C 2.902344 -144.238281 8.703125 -160.480469 56.394531 -161.757812 C 57.324219 -159.320312 58.136719 -155.609375 58.136719 -150.15625 L 58.136719 -15.433594 C 58.136719 -1.625 53.261719 -0.117188 53.261719 -0.117188 L 77.050781 -0.117188 C 77.050781 -0.117188 72.292969 -1.507812 72.292969 -15.316406 L 72.292969 -150.15625 C 72.292969 -155.609375 72.988281 -159.320312 73.917969 -161.757812 C 121.261719 -160.367188 127.0625 -144.238281 127.0625 -144.238281 Z M 122.304688 -166.398438 "/></g></g></g><g fill="#fe502d" fill-opacity="1"><g transform="translate(1114.540727, 606.859489)"><g><path d="M 63.9375 -81.226562 L 63.9375 -108.613281 C 63.9375 -108.613281 59.296875 -96.894531 36.089844 -96.894531 L 21.929688 -96.894531 L 21.929688 -151.082031 C 21.929688 -156.074219 22.511719 -159.554688 23.324219 -161.757812 L 51.753906 -161.757812 C 106.058594 -161.757812 112.441406 -144.238281 112.441406 -144.238281 L 107.683594 -166.398438 L 2.902344 -166.398438 C 2.902344 -166.398438 7.773438 -164.777344 7.773438 -150.96875 L 7.773438 -16.246094 C 7.773438 -2.4375 2.902344 -0.117188 2.902344 -0.117188 L 107.683594 -0.117188 L 112.441406 -22.164062 C 112.441406 -22.164062 106.058594 -4.640625 51.753906 -4.640625 L 23.554688 -4.640625 C 22.628906 -7.078125 21.929688 -10.792969 21.929688 -16.246094 L 21.929688 -92.949219 L 36.089844 -92.949219 C 59.296875 -92.949219 63.9375 -81.226562 63.9375 -81.226562 Z M 63.9375 -81.226562 "/></g></g></g><g fill="#fe502d" fill-opacity="1"><g transform="translate(1232.197549, 606.859489)"><g><path d="M 39.917969 -166.285156 C 36.320312 -166.285156 2.902344 -166.285156 2.902344 -166.285156 C 2.902344 -166.285156 7.773438 -164.777344 7.773438 -150.96875 L 7.773438 -16.246094 C 7.773438 -2.4375 2.902344 -0.117188 2.902344 -0.117188 C 2.902344 -0.117188 37.597656 -0.117188 40.847656 -0.117188 C 101.648438 -0.117188 127.527344 -37.363281 127.527344 -83.082031 C 127.527344 -128.804688 104.320312 -166.285156 39.917969 -166.285156 Z M 36.4375 -5.222656 L 23.324219 -5.222656 C 22.511719 -7.542969 21.929688 -11.140625 21.929688 -16.246094 L 21.929688 -151.082031 C 21.929688 -156.1875 22.511719 -159.554688 23.324219 -161.875 L 36.4375 -161.875 C 97.242188 -161.875 112.789062 -126.367188 112.789062 -83.433594 C 112.789062 -40.382812 96.542969 -5.222656 36.4375 -5.222656 Z M 36.4375 -5.222656 "/></g></g></g><g clip-path="url(#2f8bd7897f)"><path fill="#005eff" d="M 414.226562 291.9375 C 409.507812 288.300781 404.722656 284.921875 399.878906 281.667969 L 411.609375 274.847656 C 416.394531 272.039062 418.050781 265.855469 415.246094 261.074219 C 412.441406 256.289062 406.253906 254.632812 401.472656 257.4375 L 380.621094 269.554688 C 375.328125 266.492188 370.035156 263.6875 364.742188 261.074219 L 377.941406 245.324219 C 381.511719 241.050781 380.941406 234.738281 376.667969 231.101562 C 372.394531 227.53125 366.082031 228.105469 362.449219 232.316406 L 345.484375 252.527344 C 336.558594 248.957031 327.503906 246.023438 318.449219 243.601562 L 325.015625 225.621094 C 326.929688 220.390625 324.253906 214.589844 319.023438 212.738281 C 313.792969 210.824219 307.992188 213.503906 306.140625 218.734375 L 298.683594 239.265625 C 289.308594 237.671875 279.933594 236.652344 270.433594 236.269531 L 270.433594 211.910156 C 270.433594 206.363281 265.90625 201.835938 260.359375 201.835938 C 254.8125 201.835938 250.285156 206.363281 250.285156 211.910156 L 250.285156 236.332031 C 240.527344 236.777344 231.089844 237.863281 222.097656 239.394531 L 214.574219 218.667969 C 212.660156 213.441406 206.859375 210.761719 201.695312 212.675781 C 196.464844 214.589844 193.789062 220.328125 195.699219 225.554688 L 202.269531 243.664062 C 192.640625 246.152344 183.519531 249.148438 175.105469 252.402344 L 158.207031 232.25 C 154.636719 227.980469 148.257812 227.40625 143.988281 231.039062 C 139.714844 234.609375 139.140625 240.988281 142.773438 245.257812 L 155.78125 260.816406 C 148.960938 264.070312 142.773438 267.449219 137.292969 270.636719 L 114.527344 257.375 C 109.746094 254.570312 103.558594 256.226562 100.753906 261.007812 C 97.949219 265.792969 99.605469 271.976562 104.386719 274.78125 L 118.226562 282.882812 C 110.828125 288.109375 106.554688 291.808594 105.917969 292.382812 C 103.6875 294.359375 102.410156 297.292969 102.539062 300.289062 C 102.667969 303.285156 104.070312 306.089844 106.492188 307.941406 C 154.953125 344.988281 206.476562 363.800781 259.59375 363.800781 C 349.949219 363.800781 412.121094 309.789062 414.734375 307.496094 C 416.96875 305.519531 418.242188 302.585938 418.113281 299.585938 C 418.050781 296.589844 416.648438 293.785156 414.226562 291.9375 Z M 260.359375 340.84375 C 238.230469 340.84375 220.25 322.863281 220.25 300.734375 C 220.25 278.609375 238.230469 260.625 260.359375 260.625 C 282.484375 260.625 300.46875 278.609375 300.46875 300.734375 C 300.46875 322.863281 282.484375 340.84375 260.359375 340.84375 Z M 214.640625 261.582031 C 205.585938 272.105469 200.101562 285.8125 200.101562 300.734375 C 200.101562 314.890625 205.074219 327.898438 213.234375 338.230469 C 184.605469 331.535156 156.546875 318.71875 129.382812 299.714844 C 144.242188 289.195312 174.59375 270.636719 214.640625 261.582031 Z M 307.738281 337.910156 C 315.769531 327.644531 320.679688 314.765625 320.679688 300.734375 C 320.679688 285.621094 315.070312 271.847656 305.824219 261.265625 C 335.027344 267.832031 363.59375 280.777344 391.332031 300.160156 C 376.605469 310.492188 346.824219 328.664062 307.738281 337.910156 Z M 307.738281 337.910156 " fill-opacity="1" fill-rule="nonzero"/></g></svg>